<svg width="16" height="16" viewBox="0 0 16 16" fill="none" xmlns="http://www.w3.org/2000/svg">
<path fill-rule="evenodd" clip-rule="evenodd" d="M6.66663 9.33301L0.666626 15.333L6.66663 9.33301Z" fill="white" fill-opacity="0.01"/>
<path d="M6.66663 9.33301L0.666626 15.333" stroke="white" stroke-linecap="round" stroke-linejoin="round"/>
<path fill-rule="evenodd" clip-rule="evenodd" d="M13.9957 5.85217C14.0807 5.93723 14.196 5.98502 14.3163 5.98502C14.4366 5.98502 14.5519 5.93723 14.637 5.85217L15.1456 5.3436C15.3959 5.09316 15.3959 4.68719 15.1456 4.43675L11.5631 0.854277C11.3126 0.603913 10.9067 0.603913 10.6562 0.854277L10.1477 1.36285C10.0626 1.44789 10.0148 1.56324 10.0148 1.68352C10.0148 1.8038 10.0626 1.91915 10.1477 2.00418C10.2327 2.08922 10.2805 2.20457 10.2805 2.32485C10.2805 2.44513 10.2327 2.56048 10.1477 2.64552L7.44958 5.3436C7.32934 5.46388 7.16624 5.53147 6.99616 5.53151H4.96186C4.79178 5.53154 4.62868 5.59913 4.50844 5.71942L4.18777 6.04008C3.93741 6.29052 3.93741 6.69648 4.18777 6.94692L9.05291 11.8121C9.30335 12.0624 9.70931 12.0624 9.95975 11.8121L10.2804 11.4914C10.4007 11.3712 10.4683 11.2081 10.4683 11.038V9.00432C10.4684 8.83424 10.536 8.67114 10.6562 8.55089L13.3543 5.85281C13.4393 5.76767 13.5546 5.71976 13.6749 5.71964C13.7951 5.71952 13.9105 5.76719 13.9957 5.85217Z" fill="white" fill-opacity="0.01" stroke="white" stroke-linecap="round" stroke-linejoin="round"/>
</svg>
