<svg width="43" height="56" viewBox="0 0 43 56" fill="none" xmlns="http://www.w3.org/2000/svg">
<path fill-rule="evenodd" clip-rule="evenodd" d="M34.8442 30.8364C34.8868 26.8785 36.9617 23.2206 40.3368 21.1531C38.1938 18.112 34.7518 16.2481 31.0338 16.1154C27.0672 15.7141 23.3105 18.4487 21.2992 18.4487C19.2878 18.4487 16.1915 16.1667 12.9108 16.2321C8.52494 16.3566 4.52782 18.7788 2.38751 22.6091C-2.09482 30.3884 1.24418 41.9197 5.61451 48.2337C7.74718 51.3207 10.2975 54.7904 13.6388 54.6621C16.8612 54.5361 18.0722 52.5807 21.9712 52.5807C25.8702 52.5807 26.9552 54.6621 30.3712 54.5991C33.8362 54.5361 36.0318 51.4537 38.1505 48.3551C39.6677 46.1265 40.8544 43.6902 41.6738 41.1217C37.5475 39.365 34.8623 35.3212 34.8442 30.8364V30.8364Z" stroke="black" stroke-linecap="round" stroke-linejoin="round"/>
<path fill-rule="evenodd" clip-rule="evenodd" d="M28.8569 9.57033C30.8809 7.19321 31.8846 4.11321 31.6499 1C28.5921 1.29483 25.7628 2.74827 23.7423 5.06233C21.7102 7.33183 20.6849 10.328 20.9003 13.3667C23.9984 13.4069 26.9391 12.0039 28.8569 9.57033Z" stroke="black" stroke-linecap="round" stroke-linejoin="round"/>
</svg>
