<svg width="79" height="20" viewBox="0 0 79 20" fill="none" xmlns="http://www.w3.org/2000/svg">
<path d="M1 11.4084H20.1667C20.6913 11.4084 21.1852 11.1614 21.5 10.7417L24.5867 6.62841C24.9109 6.1955 25.425 5.94681 25.9656 5.96139C26.5063 5.97597 27.0063 6.25199 27.3067 6.70175L31.0733 12.3684C31.4031 12.8623 31.9708 13.1434 32.5635 13.1063C33.1562 13.0692 33.6844 12.7195 33.95 12.1884L39.0833 1.92175C39.3905 1.30692 40.0437 0.943722 40.728 1.00715C41.4124 1.07057 41.9877 1.5476 42.1767 2.20841L46.49 17.3051C46.6782 17.9663 47.253 18.4441 47.9375 18.5083C48.6219 18.5725 49.2756 18.2098 49.5833 17.5951L52.2067 12.3484C52.4883 11.7832 53.0652 11.4257 53.6967 11.4251H77.6667" stroke="#FAB91C" stroke-width="2" stroke-linecap="round" stroke-linejoin="round"/>
</svg>
