<svg width="46" height="50" viewBox="0 0 46 50" fill="none" xmlns="http://www.w3.org/2000/svg">
<circle cx="37.9229" cy="17.8206" r="6.15385" stroke="#FAB91C" stroke-width="2" stroke-linecap="round" stroke-linejoin="round"/>
<path d="M7.15385 3.46143C3.75517 3.46143 1 6.2166 1 9.61527V17.8204V17.8204C1 23.4849 5.59195 28.0768 11.2564 28.0768C16.9209 28.0768 21.5128 23.4849 21.5128 17.8204V9.61527C21.5128 6.2166 18.7576 3.46143 15.359 3.46143" stroke="#08B3E3" stroke-width="2" stroke-linecap="round" stroke-linejoin="round"/>
<path d="M11.2563 28.0769V44.4872C11.2563 46.753 13.0931 48.5898 15.3589 48.5898C17.6247 48.5898 19.4615 46.753 19.4615 44.4872V32.6554C19.4615 29.8232 21.7575 27.5272 24.5897 27.5272C27.4219 27.5272 29.7179 29.8232 29.7179 32.6554V40.3846C29.7179 42.6504 31.5547 44.4872 33.8204 44.4872C36.0862 44.4872 37.923 42.6504 37.923 40.3846V23.9744" stroke="#08B3E3" stroke-width="2" stroke-linecap="round" stroke-linejoin="round"/>
<path d="M7.15381 1.41016V6.53836" stroke="#FAB91C" stroke-width="2" stroke-linecap="round" stroke-linejoin="round"/>
<path d="M15.3589 1.41016V6.53836" stroke="#FAB91C" stroke-width="2" stroke-linecap="round" stroke-linejoin="round"/>
</svg>
