<svg width="16" height="16" viewBox="0 0 16 16" fill="none" xmlns="http://www.w3.org/2000/svg">
<path d="M10.6666 14.6663H11.2592C12.4053 14.6663 13.3333 13.9784 13.3333 12.7321V11.333" stroke="white" stroke-linecap="round" stroke-linejoin="round"/>
<path fill-rule="evenodd" clip-rule="evenodd" d="M12.6666 6C13.965 5.99906 15.075 6.95524 15.2946 8.26382C15.5143 9.5724 14.7796 10.8524 13.5552 11.2942C13.3514 11.3681 13.1252 11.3361 12.9485 11.2086C12.7719 11.081 12.6667 10.8737 12.6666 10.6525L12.6666 6Z" stroke="white" stroke-linecap="round" stroke-linejoin="round"/>
<path fill-rule="evenodd" clip-rule="evenodd" d="M3.33329 6C2.03492 5.99906 0.924922 6.95524 0.70528 8.26382C0.485637 9.5724 1.22031 10.8524 2.44467 11.2942C2.64852 11.3681 2.87474 11.3361 3.0514 11.2086C3.22806 11.081 3.33317 10.8737 3.33329 10.6525V6Z" stroke="white" stroke-linecap="round" stroke-linejoin="round"/>
<path d="M12.6666 6.6665V5.40335C12.6666 2.78726 10.5772 0.666504 7.99992 0.666504C5.42259 0.666504 3.33325 2.78726 3.33325 5.40335V6.6665" stroke="white" stroke-linecap="round" stroke-linejoin="round"/>
<path fill-rule="evenodd" clip-rule="evenodd" d="M7.93931 14H10.3636C10.5309 14 10.6666 14.1492 10.6666 14.3333V15C10.6666 15.1841 10.5309 15.3333 10.3636 15.3333H7.93931C7.60459 15.3333 7.33325 15.0349 7.33325 14.6667V14.6667C7.33325 14.2985 7.60459 14 7.93931 14Z" stroke="white" stroke-linecap="round" stroke-linejoin="round"/>
</svg>
