<svg width="599" height="439" viewBox="0 0 599 439" fill="none" xmlns="http://www.w3.org/2000/svg">
<ellipse opacity="0.1" cx="216.5" cy="430.5" rx="50.5" ry="8.5" fill="#09A4D8"/>
<ellipse opacity="0.1" cx="490.5" cy="430.5" rx="63.5" ry="8.5" fill="#09A4D8"/>
<path opacity="0.1" d="M31.0644 207H83V278.84H34.8666C34.7386 279.577 34.6158 280.32 34.4828 281.063H83V339C82.913 338.974 82.8362 338.943 82.7544 338.912C81.3829 338.361 80.0217 337.78 78.6605 337.156L77.7906 336.756C76.426 336.102 75.0613 335.41 73.6967 334.679C73.2208 334.425 72.7449 334.16 72.2741 333.89C64.6984 329.583 57.8162 324.126 51.8663 317.707C51.6923 317.536 51.5285 317.354 51.3545 317.188C50.5255 316.274 49.7119 315.349 48.9238 314.404L48.0539 313.366C47.1225 312.207 46.2219 311.018 45.3468 309.813C45.2189 309.637 45.0961 309.46 44.963 309.294C41.4042 304.286 38.4492 298.864 36.1612 293.143C36.0896 292.971 36.0282 292.784 35.9617 292.623C35.2589 290.788 34.6363 288.936 34.0938 287.066C33.8585 286.282 33.6333 285.508 33.4388 284.693C33.3672 284.454 33.3058 284.22 33.2495 283.987C30.3429 272.473 30 260.513 30 248.635C30 247.249 30 245.857 30 244.481C30 239.677 30.0563 234.842 30.1382 230.012C30.1382 228.76 30.1893 227.514 30.2149 226.257C30.2866 223.068 30.3889 219.88 30.522 216.691C30.5527 215.803 30.5936 214.92 30.6397 214.037C30.6397 213.528 30.6653 213.019 30.7164 212.51C30.8392 210.661 30.9416 208.828 31.0644 207Z" fill="#09A4D8"/>
<path opacity="0.1" d="M83 128H55C59.5515 120.35 64.5247 112.999 69.8928 105.986C74.0523 100.499 78.4431 95.1524 83 90V128Z" fill="#09A4D8"/>
<path opacity="0.1" d="M83 129V205H30C30 204.781 30.0367 204.556 30.0524 204.336C30.0995 203.736 30.1467 203.135 30.1991 202.539C30.2567 201.839 30.3196 201.134 30.3877 200.449C30.4558 199.765 30.5291 198.929 30.6077 198.171C30.6863 197.414 30.7596 196.646 30.8487 195.888C30.9377 195.13 31.0163 194.373 31.1106 193.62C31.2049 192.868 31.2887 192.105 31.3883 191.353C31.4668 190.726 31.5507 190.104 31.6345 189.477C31.755 188.594 31.8807 187.706 32.0169 186.828C32.0169 186.698 32.0536 186.562 32.0745 186.436C33.0307 180.011 34.3335 173.641 35.9774 167.355C37.6981 160.762 39.8953 154.301 42.5519 148.024C45.3754 141.457 48.6813 135.107 52.4426 129.026L83 129Z" fill="#09A4D8"/>
<path opacity="0.1" fill-rule="evenodd" clip-rule="evenodd" d="M209.488 125.939V30.0085C197.173 29.8746 184.891 31.3204 172.94 34.311C144.456 41.4939 118.899 57.0734 97 76.971V125.934H102.646V128.158H97V203.935H209.488V128.163H125.827V125.939H209.488ZM97 278.218V206.159H209.488V278.218H97ZM97 342.322V280.442H209.514V329.259C196.411 324.514 181.43 326.42 167.87 330.301C162.788 331.76 157.758 333.477 152.729 335.193C147.381 337.019 142.033 338.845 136.625 340.359C131.954 341.707 127.194 342.724 122.381 343.401L121.198 343.541L121.084 343.554L120.925 343.571L120.715 343.594C120.297 343.64 119.882 343.686 119.47 343.724L117.731 343.859H117.55C117.301 343.896 117.041 343.896 116.782 343.896C116.695 343.901 116.609 343.901 116.522 343.896C116.211 343.937 115.899 343.937 115.593 343.937H115.562C115.121 343.979 114.675 343.979 114.228 343.979H113.632H112.298H111.317H110.528C110.389 343.975 110.252 343.967 110.116 343.959H110.115H110.115L110.113 343.959C109.915 343.948 109.718 343.937 109.522 343.937C108.987 343.922 108.448 343.89 107.903 343.849L106.901 343.771C106.486 343.739 106.071 343.703 105.661 343.661C104.794 343.583 103.933 343.484 103.066 343.364L102.954 343.349L102.951 343.349L102.95 343.348C102.644 343.307 102.332 343.264 102.028 343.213C101.847 343.198 101.676 343.172 101.509 343.145C100.633 343.015 99.7763 342.864 98.9148 342.698C98.2818 342.588 97.6435 342.458 97 342.322ZM333.585 87.5865C339.921 91.0451 346.927 93.2849 353.974 93.535L383.034 125.517L382.634 125.939H222.052V30.6596C250.639 33.3474 278.506 44.1816 300.975 62.1363C304.339 64.8175 307.593 67.6529 310.844 70.4862C318.046 76.7625 325.237 83.0288 333.585 87.5865ZM368.602 90.9306L384.113 108.015V86.451C378.919 87.0969 374.368 88.6335 368.623 90.9097L368.602 90.9306ZM384.113 357.683V357.688L384.627 357.683H384.113ZM384.113 280.442V357.683H384.108V404.922C378.254 404.429 372.423 403.752 366.615 402.89C340.461 399.057 314.964 391.602 290.851 380.737C288.236 379.567 285.641 378.352 283.067 377.091C281.355 376.253 279.647 375.388 277.951 374.518C275.404 373.195 272.881 371.839 270.379 370.45C259.22 364.248 248.531 357.23 238.398 349.453L238.305 349.383L238.251 349.341L238.122 349.243C238.035 349.177 237.949 349.112 237.862 349.046C237.401 348.698 236.941 348.349 236.488 347.974C235.218 346.988 233.961 345.988 232.715 344.974C232.088 344.484 231.465 343.963 230.847 343.442L229.555 342.369C229.294 342.15 229.033 341.929 228.772 341.708L228.558 341.527L228.55 341.521L228.543 341.514C227.6 340.716 226.657 339.918 225.705 339.15C224.506 338.176 223.297 337.218 222.072 336.306V280.442H351.057C351.017 280.301 350.979 280.158 350.94 280.015C350.889 279.827 350.838 279.637 350.782 279.447C350.877 279.753 350.96 280.059 351.041 280.361L351.062 280.442H384.113ZM222.072 128.163V203.935H384.134V128.163H222.072ZM222.072 278.218V206.159H384.134V278.218H222.072ZM396.713 86.3572V110.411L416.51 88.6074C409.951 87.5448 403.351 86.7861 396.713 86.3312V86.3572ZM396.713 278.218V206.186L554.337 206.159V278.218H396.713ZM553.761 363.408L554.317 280.442H396.713V405.75C406.866 406.178 417.034 406.056 427.174 405.385H427.35C432.194 405.08 437.014 404.635 441.813 404.052H441.922C467.521 401.061 492.552 394.357 516.232 384.149L553.761 363.408ZM582.894 213.858C583.522 215.233 584.139 216.624 584.731 218.025L584.747 217.999C592.842 236.985 597.984 257.82 598 278.218H566.906V206.191H579.204C580.481 208.722 581.721 211.254 582.894 213.858ZM566.906 280.468V351.829C575.665 343.401 583.065 333.759 588.395 322.737C594.803 309.465 597.735 295.094 597.974 280.458L566.906 280.468ZM566.906 203.941V185.189L566.921 185.163C570.965 191.217 574.68 197.485 578.052 203.941H566.906ZM460.006 100.494C459.764 100.401 459.521 100.309 459.279 100.216C458.701 99.9943 458.123 99.7727 457.542 99.5563C448.84 96.3307 439.947 93.6482 430.915 91.5244L400.62 124.897L400.039 125.517L400.428 125.944H508.251C493.235 115.568 477.045 107.017 460.022 100.468L460.006 100.494ZM398.923 128.189H511.412L511.427 128.163C527.42 139.578 541.853 153.048 554.358 168.229V203.935H416.121H416.089H396.713V130.22L398.923 128.189Z" fill="#09A4D8"/>
<path opacity="0.1" d="M83 167V205H30C30 204.779 30.0367 204.552 30.0524 204.331C30.0995 203.724 30.1467 203.118 30.1991 202.517C30.2567 201.811 30.3196 201.099 30.3877 200.409C30.4558 199.718 30.5291 198.875 30.6077 198.111C30.6863 197.346 30.7596 196.571 30.8487 195.807C30.9377 195.043 31.0163 194.278 31.1106 193.519C31.2049 192.76 31.2887 191.991 31.3883 191.232C31.4668 190.599 31.5507 189.972 31.6345 189.339C31.755 188.448 31.8807 187.552 32.0169 186.667C32.0169 186.535 32.0536 186.398 32.0745 186.271C33.0307 179.789 34.3335 173.363 35.9774 167.021L83 167Z" fill="#09A4D8"/>
<path opacity="0.1" d="M31.0644 207H83V278.84H34.8666C34.7386 279.577 34.6158 280.32 34.4828 281.063H83V339C82.913 338.974 82.8362 338.943 82.7544 338.912C81.3829 338.361 80.0217 337.78 78.6605 337.156L77.7906 336.756C76.426 336.102 75.0613 335.41 73.6967 334.679C73.2208 334.425 72.7449 334.16 72.2741 333.89C64.6984 329.583 57.8162 324.126 51.8663 317.707C51.6923 317.536 51.5285 317.354 51.3545 317.188C50.5255 316.274 49.7119 315.349 48.9238 314.404L48.0539 313.366C47.1225 312.207 46.2219 311.018 45.3468 309.813C45.2189 309.637 45.0961 309.46 44.963 309.294C41.4042 304.286 38.4492 298.864 36.1612 293.143C36.0896 292.971 36.0282 292.784 35.9617 292.623C35.2589 290.788 34.6363 288.936 34.0938 287.066C33.8585 286.282 33.6333 285.508 33.4388 284.693C33.3672 284.454 33.3058 284.22 33.2495 283.987C30.3429 272.473 30 260.513 30 248.635C30 247.249 30 245.857 30 244.481C30 239.677 30.0563 234.842 30.1382 230.012C30.1382 228.76 30.1893 227.514 30.2149 226.257C30.2866 223.068 30.3889 219.88 30.522 216.691C30.5527 215.803 30.5936 214.92 30.6397 214.037C30.6397 213.528 30.6653 213.019 30.7164 212.51C30.8392 210.661 30.9416 208.828 31.0644 207Z" fill="#09A4D8"/>
<path opacity="0.1" d="M137 139.258V205H98V139.258H103.56V117H126.385V139.258H137Z" fill="#09A4D8"/>
<rect opacity="0.1" x="98" y="207" width="39" height="72" fill="#09A4D8"/>
<path opacity="0.1" d="M98 282H137V341.414C132.4 342.751 127.712 343.757 122.971 344.427L121.806 344.571C121.233 344.638 120.666 344.695 120.104 344.752C119.542 344.809 118.959 344.85 118.392 344.886H118.213C117.968 344.886 117.702 344.917 117.462 344.923H117.201C116.894 344.923 116.588 344.953 116.281 344.964C115.847 344.99 115.412 344.995 114.968 345C114.779 345 114.6 345 114.411 345C113.971 345 113.537 345 113.097 345H112.131C111.871 345 111.62 345 111.349 345L110.363 344.964C109.852 344.964 109.3 344.907 108.768 344.871L107.787 344.799L106.566 344.685C105.707 344.607 104.853 344.509 104.01 344.39L102.988 344.246L102.477 344.173C101.624 344.039 100.78 343.894 99.9216 343.729C99.293 343.621 98.6695 343.486 98.0358 343.357L98 282Z" fill="#09A4D8"/>
<rect opacity="0.1" x="350" y="132" width="34" height="73" fill="#09A4D8"/>
<path opacity="0.1" d="M383 207V279H222V247.944H307.756V266.264H350.559V207H383Z" fill="#09A4D8"/>
<path opacity="0.1" d="M384 357.173H383.483V405C377.657 404.498 371.849 403.814 366.057 402.95C339.985 399.059 314.567 391.5 290.533 380.489C283.594 377.305 276.796 373.831 270.14 370.064C259.021 363.786 248.368 356.685 238.267 348.82C235.73 346.839 233.226 344.811 230.754 342.738C229.043 341.3 227.341 339.824 225.62 338.391C224.425 337.405 223.22 336.435 222 335.508V279.007H350.519C350.431 278.669 350.344 278.332 350.25 278C350.349 278.332 350.442 278.669 350.53 279.007H383.483V357.142C383.659 357.147 383.829 357.163 384 357.173Z" fill="#09A4D8"/>
<path opacity="0.1" d="M470 126H448V119.465H457.862V100C458.717 100.297 459.569 100.604 460.417 100.918V119.465H470V126Z" fill="#09A4D8"/>
<path opacity="0.1" d="M521 204.974H416.413C416.413 204.974 416.413 204.974 416.449 205L416.402 204.974H397V132.191H402.497V185.988H427.621V154.128H448.374V129H469.678V154.149H490.431V186.009H521V204.974Z" fill="#09A4D8"/>
<path opacity="0.1" fill-rule="evenodd" clip-rule="evenodd" d="M397 278.477V206H521.132V278.477H397ZM555 306.421L554.828 363.789L516.804 385.022C493.068 395.29 467.977 402.033 442.317 405.041H442.208C437.398 405.627 432.565 406.074 427.711 406.382H427.534C417.37 407.057 407.177 407.179 397 406.749V280.75H521.132V306.421H555Z" fill="#09A4D8"/>
<path opacity="0.1" d="M569.245 283H599C598.738 297.557 595.724 311.854 589.128 325.058C583.639 336.028 576.012 345.621 567 354V308.397H569.245V283Z" fill="#09A4D8"/>
<path opacity="0.1" d="M598 279H570V219H585.151C592.993 237.917 597.975 258.676 598 279Z" fill="#09A4D8"/>
<rect opacity="0.1" x="366" y="152" width="18" height="23" fill="#09A4D8"/>
<rect opacity="0.1" x="366" y="201" width="18" height="5" fill="#09A4D8"/>
<rect opacity="0.1" x="366" y="207" width="18" height="15" fill="#09A4D8"/>
<rect opacity="0.1" x="366" y="247" width="18" height="23" fill="#09A4D8"/>
<rect opacity="0.1" x="366" y="295" width="18" height="23" fill="#09A4D8"/>
<path opacity="0.1" d="M383.481 357.631C383.658 357.631 383.829 357.631 384 357.663H383.481V363H366V340H383.481V357.631Z" fill="#09A4D8"/>
<path opacity="0.1" d="M384 388V406C377.982 405.492 371.982 404.8 366 403.925V388H384Z" fill="#09A4D8"/>
<rect opacity="0.1" x="221" y="278" width="76" height="2" fill="#09A4D8"/>
<rect opacity="0.1" x="221" y="282" width="76" height="7" fill="#09A4D8"/>
<rect opacity="0.1" x="221" y="311" width="76" height="9" fill="#09A4D8"/>
<path opacity="0.1" d="M298 341V350H239.638C237.104 348.295 234.601 346.545 232.129 344.749C230.419 343.507 228.725 342.233 227 341H298Z" fill="#09A4D8"/>
<path opacity="0.1" d="M297 373.014V382H290.961C284.174 379.25 277.52 376.25 271 373L297 373.014Z" fill="#09A4D8"/>
<rect opacity="0.1" x="427" y="213" width="15" height="15" fill="#09A4D8"/>
<rect opacity="0.1" x="107" y="144" width="15" height="15" fill="#09A4D8"/>
<rect opacity="0.1" x="107" y="179" width="15" height="15" fill="#09A4D8"/>
<rect opacity="0.1" x="107" y="213" width="15" height="15" fill="#09A4D8"/>
<rect opacity="0.1" x="107" y="248" width="15" height="15" fill="#09A4D8"/>
<rect opacity="0.1" x="107" y="283" width="15" height="15" fill="#09A4D8"/>
<rect opacity="0.1" x="107" y="318" width="15" height="15" fill="#09A4D8"/>
<rect opacity="0.1" x="485" y="213" width="15" height="15" fill="#09A4D8"/>
<rect opacity="0.1" x="427" y="251" width="15" height="15" fill="#09A4D8"/>
<rect opacity="0.1" x="485" y="251" width="15" height="15" fill="#09A4D8"/>
<rect opacity="0.1" x="427" y="288" width="15" height="15" fill="#09A4D8"/>
<rect opacity="0.1" x="485" y="288" width="15" height="15" fill="#09A4D8"/>
<rect opacity="0.1" x="427" y="325" width="15" height="15" fill="#09A4D8"/>
<rect opacity="0.1" x="485" y="325" width="15" height="15" fill="#09A4D8"/>
<rect opacity="0.1" x="427" y="360" width="15" height="15" fill="#09A4D8"/>
<rect opacity="0.1" x="485" y="360" width="15" height="15" fill="#09A4D8"/>
<path opacity="0.1" d="M427 406V397H442V404.719L427 406Z" fill="#09A4D8"/>
<path opacity="0.1" fill-rule="evenodd" clip-rule="evenodd" d="M34 187V195H85V187H34ZM39.0827 194.498H34.9222V187.492H39.1141L39.0827 194.498ZM39.9683 194.498H44.1602V187.492H39.9683V194.498ZM49.2272 194.498H45.0352V187.492H49.2272V194.498ZM50.1179 194.498H54.3046L54.3099 187.492H50.1179V194.498ZM59.3769 194.498H55.1849V187.492H59.3769V194.498ZM60.2624 194.498H64.4543V187.492H60.2624V194.498ZM69.5318 194.498H65.3399V187.492H69.5318V194.498ZM70.4121 194.498H74.604V187.492H70.4121V194.498ZM79.6763 194.498H75.4843V187.492H79.6763V194.498ZM80.5566 194.498H84.7485V187.492H80.5566V194.498Z" fill="#09A4D8"/>
<path opacity="0.1" fill-rule="evenodd" clip-rule="evenodd" d="M34 211V219H85V211H34ZM39.0827 218.494H34.9222V211.506H39.1141L39.0827 218.494ZM39.9683 218.494H44.1602V211.506H39.9683V218.494ZM49.2272 218.494H45.0352V211.506H49.2272V218.494ZM50.1179 218.494H54.3046L54.3099 211.506H50.1179V218.494ZM59.3769 218.494H55.1849V211.506H59.3769V218.494ZM60.2624 218.494H64.4543V211.506H60.2624V218.494ZM69.5318 218.494H65.3399V211.506H69.5318V218.494ZM70.4121 218.494H74.604V211.506H70.4121V218.494ZM79.6763 218.494H75.4843V211.506H79.6763V218.494ZM80.5566 218.494H84.7485V211.506H80.5566V218.494Z" fill="#09A4D8"/>
<path opacity="0.1" fill-rule="evenodd" clip-rule="evenodd" d="M34 237V245H85V237H34ZM39.0827 244.48H34.9222V237.501H39.1141L39.0827 244.48ZM39.9683 244.48H44.1602V237.501H39.9683V244.48ZM49.2272 244.48H45.0352V237.501H49.2272V244.48ZM50.1179 244.48H54.3046L54.3099 237.501H50.1179V244.48ZM59.3769 244.48H55.1849V237.501H59.3769V244.48ZM60.2624 244.48H64.4543V237.501H60.2624V244.48ZM69.5318 244.48H65.3399V237.501H69.5318V244.48ZM70.4121 244.48H74.604V237.501H70.4121V244.48ZM79.6763 244.48H75.4843V237.501H79.6763V244.48ZM80.5566 244.48H84.7485V237.501H80.5566V244.48Z" fill="#09A4D8"/>
<path opacity="0.1" fill-rule="evenodd" clip-rule="evenodd" d="M34 261V269H85V261H34ZM39.0827 268.503H34.9222V261.497H39.1141L39.0827 268.503ZM39.9683 268.503H44.1602V261.497H39.9683V268.503ZM49.2272 268.503H45.0352V261.497H49.2272V268.503ZM50.1179 268.503H54.3046L54.3099 261.497H50.1179V268.503ZM59.3769 268.503H55.1849V261.497H59.3769V268.503ZM60.2624 268.503H64.4543V261.497H60.2624V268.503ZM69.5318 268.503H65.3399V261.497H69.5318V268.503ZM70.4121 268.503H74.604V261.497H70.4121V268.503ZM79.6763 268.503H75.4843V261.497H79.6763V268.503ZM80.5566 268.503H84.7485V261.497H80.5566V268.503Z" fill="#09A4D8"/>
<path opacity="0.1" fill-rule="evenodd" clip-rule="evenodd" d="M34.6789 286.251C34.4368 285.507 34.2052 284.754 34 284H85V292H36.8418C36.7991 291.905 36.7563 291.799 36.7135 291.694L36.7135 291.694C36.6879 291.631 36.6622 291.568 36.6366 291.507H38.889V284.502H34.6789V286.251ZM39.7889 291.507H43.999V284.502H39.7889V291.507ZM49.0879 291.507H44.8778V284.502H49.0879V291.507ZM49.9668 291.507H54.1874L54.1769 284.502H49.9668V291.507ZM59.2816 291.507H55.0715V284.502H59.2816V291.507ZM60.171 291.507H64.3811V284.502H60.171V291.507ZM69.4805 291.507H65.2705V284.502H69.4805V291.507ZM70.3647 291.507H74.5748V284.502H70.3647V291.507ZM79.669 291.507H75.4589V284.502H79.669V291.507ZM80.5531 291.507H84.7632V284.502H80.5531V291.507Z" fill="#09A4D8"/>
<path opacity="0.1" fill-rule="evenodd" clip-rule="evenodd" d="M45 309C45.0566 309.07 45.1123 309.144 45.1683 309.218C45.2386 309.311 45.3094 309.405 45.3834 309.493H48.0874V312.86L48.2249 313.018C48.4693 313.3 48.7118 313.58 48.9615 313.845V309.473H53.0508V316.507H51.3947C51.4349 316.547 51.4748 316.588 51.5149 316.628L51.5151 316.629L51.5153 316.629L51.5153 316.629L51.5153 316.629L51.5153 316.629L51.5153 316.629C51.6383 316.754 51.7634 316.881 51.9058 317H83V309H45ZM57.9887 316.507H53.8994V309.503H57.9887V316.507ZM58.8526 316.507H62.9419V309.503H58.8526V316.507ZM67.8951 316.507H63.8058V309.503H67.8951V316.507ZM68.7538 316.507H72.8432V309.503H68.7538V316.507ZM77.7912 316.507H73.7019V309.503H77.7912V316.507ZM78.65 316.507H82.7393V309.503H78.65V316.507Z" fill="#09A4D8"/>
<path opacity="0.1" d="M73 335C73.4776 335.264 73.9656 335.508 74.459 335.772V335.518H78.6574V337.802L79.5496 338.203V335.518H83.7481V339.909C83.8286 339.947 83.913 339.978 84 340V335L73 335Z" fill="#09A4D8"/>
<path opacity="0.1" fill-rule="evenodd" clip-rule="evenodd" d="M101 128.236V126H124.264V128.236H101ZM350.166 280.927C350.115 280.738 350.064 280.547 350.008 280.356C350.112 280.691 350.2 281.026 350.284 281.356C350.243 281.214 350.205 281.071 350.166 280.927Z" fill="#09A4D8"/>
<path fill-rule="evenodd" clip-rule="evenodd" d="M262.524 226.562C262.524 229.556 264.586 229.843 264.586 229.843C264.586 229.843 266.837 232.446 265.659 234.377C264.482 236.307 263.99 241.033 263.99 241.033C263.99 241.033 264.387 250.105 262.618 251.357C260.85 252.609 260.457 255.598 260.457 255.598C260.457 255.598 257.218 261.29 257.317 262.641C257.416 263.992 252.801 273.158 252.801 273.158C252.801 273.158 252.45 272.96 251.874 272.637L251.623 273.158C251.623 273.158 251.665 272.939 251.707 272.558C251.559 272.468 251.399 272.372 251.23 272.27C250.715 271.962 250.107 271.597 249.446 271.15C248.509 271.833 249.556 273.45 249.556 273.45C249.326 273.588 249.107 273.743 248.902 273.915C248.938 273.982 248.97 274.029 248.97 274.029C248.745 274.16 248.53 274.306 248.326 274.468C247.934 274.953 247.719 275.542 248.195 276.111C249.273 277.368 248.593 283.107 248.593 283.107L245.647 287.901C245.647 287.901 245.835 290.989 245.835 295.163C245.845 301.658 245.448 310.813 243.292 314.986L243.585 349.235C243.585 349.235 241.936 349.829 239.398 350.471C239.437 350.751 239.473 351.035 239.509 351.312C239.521 351.406 239.533 351.5 239.544 351.593C239.678 352.507 239.754 353.429 239.769 354.352C239.675 355.417 239.769 358.688 239.769 358.688L240.256 368.526C239.938 369.557 239.774 370.63 239.769 371.709C239.869 372.966 241.727 390.912 241.727 390.912C241.727 390.912 244.971 401.606 243.888 402.389C242.805 403.171 245.458 412.822 245.458 412.822C245.458 412.822 245.092 412.791 244.521 412.822H245.306H245.448C245.354 416.777 252.126 421.315 252.126 421.315C259.327 423.96 260.389 426.923 260.447 428.274C260.468 428.527 260.443 428.782 260.373 429.026C260.373 429.026 258.929 429.276 256.768 429.547C251.252 430.231 241.062 431.175 238.377 429.026C236.287 427.309 233.593 426.5 230.899 426.777L230.726 426.808C230.726 426.808 223.661 426.996 222.484 424.69C221.992 423.725 222.117 421.868 222.421 420.032C222.733 418.312 223.147 416.612 223.661 414.94C224.143 414.429 224.143 410.897 224.143 410.897C216.884 401.152 223.065 397.198 223.065 397.198C223.065 397.198 219.825 381.861 219.239 376.169C218.825 372.199 218.318 361.515 218.046 355.422C218.014 355.018 217.999 354.643 217.999 354.295C216.764 354.368 215.539 354.368 214.335 354.368C211.035 354.357 207.74 354.108 204.476 353.622C204.376 353.987 204.282 354.358 204.203 354.738C203.762 357.257 203.64 359.822 203.842 362.371C204.036 366.043 203.842 390.64 203.842 390.64C203.842 390.64 199.624 397.219 197.264 399.509C194.904 401.799 202.073 405.973 202.073 405.973C203.152 411.956 196.673 418.707 196.673 418.707C196.673 418.707 196.73 418.853 196.84 419.108C197.547 420.882 200.388 428.092 200.305 429.605C200.296 430.39 200.612 431.145 201.179 431.691C201.474 432.005 201.809 432.28 202.173 432.51C202.173 432.51 195.155 435.046 189.456 435.807C188.87 435.886 188.263 435.948 187.739 435.985C184.625 436.188 182.987 434.31 182.145 432.5C181.683 431.496 181.385 430.425 181.26 429.328L182.03 421.018L182.077 420.522C181.517 419.578 177.743 413.12 176.749 410.709C175.865 408.602 179.164 407.025 181.449 405.934C181.991 405.674 182.477 405.442 182.836 405.237C184.704 404.168 182.741 397.907 182.741 397.907C182.741 397.907 181.161 392.409 179.303 387.39C177.445 382.372 181.365 357.394 181.365 357.394C181.365 357.394 181.564 352.97 182.056 351.405C182.296 350.289 182.344 349.141 182.197 348.009L182.056 347.936L182.103 347.091C182.056 346.892 182.056 346.778 182.056 346.778L182.249 343.209C182.249 343.209 182.736 302.784 181.365 299.701C179.994 296.618 178.916 280.889 179.701 278.479C179.83 277.567 179.86 276.644 179.79 275.725L178.617 276.549C178.35 276.485 178.092 276.389 177.848 276.262L177.44 276.549C171.746 275.297 157.809 250.888 157.809 250.888C157.809 250.888 153.591 241.336 153.785 240.277C153.979 239.218 153 232.269 153 232.269L154.769 216.645L164.356 196.951C165.65 194.194 166.765 191.357 167.695 188.458C169.36 183.346 177.115 178.327 177.115 178.327C177.115 178.327 185.065 173.314 188.205 173.507C191.345 173.7 195.469 169.067 195.469 169.067C196.824 165.671 198.243 164.477 199.394 164.195V164.148L199.441 164.185C199.661 164.136 199.886 164.116 200.111 164.127C200.778 164.108 201.417 164.392 201.848 164.899C201.989 163.354 202.008 161.8 201.906 160.251C201.902 160.177 201.896 160.103 201.89 160.028C201.88 159.902 201.869 159.776 201.869 159.651C196.899 156.434 193.847 150.976 193.716 145.07V144.637V144.486C193.167 143.899 192.531 143.396 191.895 142.894C191.119 142.281 190.344 141.668 189.728 140.902C189.553 140.679 189.392 140.446 189.246 140.203C189.222 140.164 189.202 140.125 189.181 140.085C189.165 140.055 189.149 140.025 189.131 139.994C189.037 139.833 188.943 139.655 188.864 139.473C188.832 139.404 188.803 139.332 188.774 139.262C188.766 139.241 188.757 139.221 188.749 139.201C188.681 139.029 188.618 138.857 188.566 138.68C188.557 138.652 188.547 138.624 188.537 138.595C188.514 138.529 188.49 138.462 188.472 138.393C188.409 138.163 188.346 137.871 188.315 137.704C188.293 137.588 188.274 137.433 188.259 137.313C188.252 137.261 188.246 137.216 188.242 137.182C188.236 137.142 188.233 137.109 188.23 137.076C188.225 137.019 188.219 136.961 188.2 136.859C188.168 136.697 188.168 136.52 188.168 136.337V136.092V135.513V135.487C188.191 134.951 188.254 134.417 188.357 133.891C188.842 131.475 190.016 129.257 191.171 127.075L191.178 127.062C191.896 125.733 192.604 124.403 193.302 123.071C194.161 121.454 195.076 119.795 196.605 118.751C198.326 117.596 200.431 117.49 202.558 117.383C203.82 117.32 205.089 117.256 206.292 116.973C207.133 116.776 207.942 116.469 208.75 116.162C209.38 115.923 210.01 115.683 210.656 115.496C213.599 114.651 216.748 114.892 219.527 116.174C219.527 116.236 220.359 116.771 221.169 117.292C221.858 117.735 222.532 118.168 222.667 118.292C223.491 119.124 224.24 120.027 224.907 120.989C226.094 122.526 227.675 122.61 229.458 122.704C229.812 122.723 230.174 122.742 230.543 122.774C232.506 122.941 234.74 123.264 235.813 124.886C236.546 125.992 236.514 127.437 236.2 128.721C236.059 129.297 235.869 129.86 235.679 130.423C235.445 131.114 235.211 131.805 235.07 132.519C235.023 132.769 234.986 133.03 234.955 133.291L234.923 133.729C234.854 134.824 234.941 135.929 235.027 137.034C235.078 137.683 235.129 138.331 235.148 138.977C235.227 141.137 234.798 143.51 233.134 144.919C232.926 145.095 232.701 145.254 232.476 145.414C231.986 145.761 231.498 146.107 231.197 146.614C230.987 146.963 230.893 147.362 230.797 147.764C230.722 148.083 230.646 148.403 230.512 148.701C230.316 149.137 229.946 149.47 229.491 149.619C229.469 149.694 229.448 149.771 229.427 149.847C229.393 149.974 229.357 150.101 229.318 150.224C227.937 154.345 225.111 157.831 221.358 160.042C221.385 160.23 221.385 160.418 221.385 160.606C221.468 162.353 221.725 164.284 221.992 165.963C221.992 165.963 224.546 165.979 225.132 166.746C225.393 166.989 225.679 167.204 225.985 167.388C229.35 169.626 241.224 176.491 241.224 176.491C241.224 176.491 247.792 179.052 249.368 182.751C249.511 183.089 249.651 183.418 249.787 183.737C251.136 186.911 252.083 189.139 252.801 190.102C253.591 191.161 253.978 196.08 253.978 196.08C253.978 196.08 256.244 205.147 258.008 206.691C259.771 208.235 261.048 217.949 261.048 217.975C261.048 217.975 262.524 223.567 262.524 226.562ZM176.357 228.007L176.268 225.821L175.456 226.562C175.456 226.562 175.833 227.167 176.357 228.007Z" fill="url(#paint0_linear)"/>
<path d="M252 267.339L250.794 272C250.794 272 241.133 267.527 239.39 261.842C237.648 256.158 242.305 254 242.305 254L251.308 257.46L252 267.339Z" fill="white"/>
<path opacity="0.1" d="M252 267.339L250.794 272C250.794 272 241.133 267.527 239.39 261.842C237.648 256.158 242.305 254 242.305 254L251.308 257.46L252 267.339Z" fill="black"/>
<path d="M203 432.45C203 432.45 194.415 435.589 188.514 435.984C185.38 436.193 183.733 434.281 182.885 432.439C182.422 431.415 182.123 430.325 182 429.209L182.767 420.747L183.175 416.241L195.714 413L197.49 418.403L197.656 418.814C198.37 420.619 201.229 427.96 201.144 429.492C201.136 430.285 201.454 431.046 202.024 431.601C202.311 431.924 202.64 432.209 203 432.45Z" fill="white"/>
<path d="M258.993 427.861C259.014 428.12 258.989 428.382 258.919 428.632C258.919 428.632 240.818 431.71 237.115 428.632C235.004 426.813 232.238 425.987 229.498 426.357C229.498 426.357 222.494 426.551 221.325 424.2C220.839 423.214 220.966 421.3 221.267 419.413C221.575 417.645 221.984 415.897 222.494 414.178L222.775 413.952L224.441 412.588L243.949 412H244.097C244.002 416.065 250.72 420.728 250.72 420.728C257.855 423.424 258.908 426.47 258.993 427.861Z" fill="white"/>
<path opacity="0.1" d="M258.994 426.182C259.013 426.402 258.986 426.624 258.915 426.837C258.915 426.837 240.817 429.454 237.114 426.837C235.004 425.292 232.24 424.59 229.501 424.903C229.501 424.903 222.492 425.068 221.328 423.07C220.841 422.226 220.963 420.604 221.264 419C223.962 419.234 228.221 419.816 229.893 421.204C232.421 423.317 236.706 425.425 239.336 425.59C241.394 425.705 253.704 426.044 258.994 426.182Z" fill="black"/>
<path opacity="0.1" d="M202 432.752C202 432.752 193.889 435.624 188.313 435.986C185.352 436.176 183.796 434.428 183 432.738C185.063 433.407 187.927 434.11 189.433 433.465C191.217 432.703 197.544 432.21 201.093 432C201.363 432.285 201.667 432.537 202 432.752Z" fill="black"/>
<path d="M213.102 184.37C206.105 181.602 197.104 172.458 199.351 168.185C199.851 167.107 200.147 165.943 200.226 164.754C200.371 163.139 200.392 161.516 200.29 159.898C200.132 157.249 199.819 154.611 199.351 152C199.351 152 221.196 152.502 219.924 155.776C219.553 156.737 219.495 158.404 219.595 160.271C219.696 162.137 219.961 164.247 220.237 166.032C220.618 168.482 221 170.348 221 170.348C221 170.348 219.664 172.253 218.88 172.355C218.095 172.458 223.142 188.314 213.102 184.37Z" fill="#CF6F80"/>
<path opacity="0.1" d="M196 418.116L195.855 418.276C190.083 411.276 183.103 420 183.103 420L183 419.817L183.356 415.852L194.304 413L195.855 417.754L196 418.116Z" fill="black"/>
<path opacity="0.1" d="M245 412.602C245 412.602 240.151 412.497 237.565 414.837C234.978 417.178 222.478 415.345 223.017 414.837C223.177 414.586 223.273 414.297 223.297 413.998L224.994 412.602L244.865 412C244.941 412.37 245 412.602 245 412.602Z" fill="black"/>
<path d="M202.948 350.363C202.609 351.233 202.351 352.134 202.179 353.055C201.757 355.576 201.64 358.143 201.83 360.694C202.017 364.367 201.83 388.981 201.83 388.981C201.83 388.981 197.827 395.546 195.596 397.86C193.365 400.173 200.15 404.329 200.15 404.329C201.162 410.311 195.029 417.069 195.029 417.069C188.796 409.251 181.256 419 181.256 419C181.256 419 177.158 411.654 176.136 409.031C175.114 406.407 180.138 404.592 181.904 403.526C183.67 402.461 181.818 396.18 181.818 396.18C181.818 396.18 180.325 390.676 178.554 385.655C176.783 380.633 180.508 355.636 180.508 355.636C180.508 355.636 180.7 351.197 181.16 349.649C181.393 348.532 181.439 347.382 181.297 346.249C181.266 345.866 181.231 345.546 181.206 345.331C181.18 345.116 181.16 345.016 181.16 345.016L181.231 344.89L183.761 340C183.761 340 204.162 347.283 202.948 350.363Z" fill="#09A4D8"/>
<path d="M243 412.819C243 412.819 238.469 412.72 236.052 414.91C233.635 417.101 221.954 415.391 222.458 414.91C222.961 414.429 222.921 410.869 222.921 410.869C216.069 401.154 221.914 397.211 221.914 397.211C221.914 397.211 218.853 381.917 218.299 376.244C217.911 372.281 217.433 361.63 217.176 355.549C217.065 352.935 217 351.136 217 351.136L222.599 349.965L223.319 349.813L236.822 347C236.822 347 237.195 349.614 237.447 351.753C237.572 352.666 237.643 353.586 237.658 354.508C237.567 355.554 237.658 358.827 237.658 358.827L238.116 368.642C237.817 369.671 237.663 370.74 237.658 371.815C237.749 373.065 239.506 390.958 239.506 390.958C239.506 390.958 242.562 401.635 241.52 402.403C240.478 403.172 243 412.819 243 412.819Z" fill="#09A4D8"/>
<path opacity="0.1" d="M219.951 157.805C219.609 158.772 219.555 160.451 219.648 162.332C214.148 166.018 207.237 165.875 201.864 161.962C201.719 159.291 201.431 156.633 201 154C201 154 221.123 154.495 219.951 157.805Z" fill="black"/>
<path d="M229.992 144.155C229.996 146.034 229.698 147.903 229.108 149.689C226.388 157.953 218.059 163.071 209.385 161.81C200.711 160.548 194.215 153.273 194.003 144.582C194.003 144.436 194.003 144.301 194.003 144.155C193.891 137.706 197.297 131.699 202.911 128.442C208.525 125.186 215.475 125.186 221.089 128.442C226.703 131.699 230.109 137.706 229.997 144.155H229.992Z" fill="#CF6F80"/>
<path opacity="0.1" d="M213.102 184.409C206.105 181.811 197.104 173.23 199.351 169.22C199.851 168.208 200.147 167.116 200.226 166L209.805 173.518L215.731 178.161L220.237 167.205C220.618 169.504 221 171.255 221 171.255C221 171.255 219.664 173.042 218.88 173.139C218.095 173.235 223.142 188.11 213.102 184.409Z" fill="black"/>
<path d="M238 217.338L230.255 350.323L220.155 351L194 273.889L198.291 182.342L199.194 163L210.824 172.763L216.567 177.573L221.058 165.891L229.408 173.329L238 217.338Z" fill="#09A4D8"/>
<path opacity="0.1" d="M204.947 351.311C204.606 352.18 204.346 353.08 204.173 354C196.872 352.841 189.782 350.563 183.138 347.243L183 347.17L183.046 346.326L183.071 345.885L185.62 341C185.62 341 206.171 348.234 204.947 351.311Z" fill="black"/>
<path opacity="0.1" d="M222 354.292C220.075 354.642 218.133 354.878 216.184 355C216.068 352.191 216 350.258 216 350.258L221.848 349L222 354.292Z" fill="black"/>
<path opacity="0.1" d="M238 350.248C234.199 351.316 228.33 352.516 223.075 351.766L223 348.106L237.337 345C237.337 345 237.733 347.858 238 350.248Z" fill="black"/>
<path opacity="0.1" d="M223 354.228C201.814 357.874 182.41 347.42 182.41 347.42L182.596 343.878C182.596 343.878 183.077 303.724 181.744 300.645C180.411 297.567 179.372 281.956 180.126 279.56C180.881 277.164 177.372 241.234 177.372 241.234L176.804 226.649L156 218.154L165.301 198.61C166.558 195.87 167.638 193.052 168.536 190.172C170.153 185.099 177.662 180.114 177.662 180.114C177.662 180.114 185.361 175.134 188.405 175.322C191.448 175.509 195.437 170.915 195.437 170.915C198.383 163.347 201.049 166.774 201.049 166.774C201.049 167.134 201.049 166.774 200.904 167.894C199.871 176.202 217.616 202.454 217.869 202.918L219.559 244.411L221.269 296.921L223 354.228Z" fill="black"/>
<path d="M223 354.228C201.819 357.874 182.415 347.421 182.415 347.421L182.606 343.88C182.606 343.88 183.086 303.732 181.748 300.654C180.41 297.576 179.377 281.968 180.136 279.573C180.896 277.177 177.383 241.253 177.383 241.253L176.809 226.67L156 218.145L165.299 198.605C166.552 195.864 167.633 193.046 168.533 190.168C170.145 185.096 177.657 180.112 177.657 180.112C177.657 180.112 185.354 175.133 188.392 175.32C191.43 175.508 195.423 170.914 195.423 170.914C198.373 163.347 201.622 166.774 201.622 166.774C201.622 167.133 201.312 167.295 201.478 167.894C203.751 175.95 217.617 202.448 217.87 202.912L219.58 244.398L221.29 296.899L223 354.228Z" fill="white"/>
<path opacity="0.1" d="M218 204C215.782 203.013 204.03 188.705 204.03 188.705V185.448C203.603 184.375 201.062 185.03 199 185.781L199.885 166L200.891 166.891C203.095 175.185 217.743 203.523 218 204Z" fill="black"/>
<path d="M218 202C215.777 201.013 204.029 186.705 204.029 186.705V183.448C203.602 182.375 201.062 183.03 199 183.781L199.89 164L200.896 164.891C203.104 173.185 217.754 201.528 218 202Z" fill="white"/>
<path opacity="0.1" d="M182.11 269.46C182.381 269.46 196.171 268 196.171 268C196.171 268 204.522 284.53 203.974 288.552C203.427 292.574 202.435 296.134 199.077 295.503C195.718 294.873 181 296 181 296L182.11 269.46Z" fill="black"/>
<path d="M182.11 269.46C182.381 269.46 196.172 268 196.172 268C196.172 268 204.517 284.535 203.975 288.552C203.432 292.569 202.431 296.134 199.077 295.503C195.723 294.873 181 296 181 296L182.11 269.46Z" fill="white"/>
<path d="M193.102 263C193.102 263 206.7 269.372 206.991 271.317C207.283 273.263 200.071 270.467 198.513 270.13C197.487 269.914 196.444 269.772 195.392 269.705L185 269.95L193.102 263Z" fill="#CF6F80"/>
<circle opacity="0.1" cx="213" cy="202" r="1" fill="black"/>
<circle cx="213" cy="202" r="1" fill="#3F3D56"/>
<circle opacity="0.1" cx="217" cy="263" r="1" fill="black"/>
<circle cx="217" cy="262" r="1" fill="#3F3D56"/>
<circle opacity="0.1" cx="216" cy="233" r="1" fill="black"/>
<circle cx="216" cy="232" r="1" fill="#3F3D56"/>
<path d="M247.553 269.353C247.553 269.353 248.522 270.794 247.553 271.467C246.583 272.14 247.647 273.768 247.647 273.768C247.647 273.768 245.228 275.172 246.293 276.435C247.358 277.697 246.683 283.401 246.683 283.401L243.774 288.171C243.774 288.171 243.948 291.244 243.958 295.398C243.958 301.879 243.573 310.99 241.444 315.144L241.739 349.225C241.739 349.225 231.551 352.909 223.024 351.787L221.759 297.099C221.759 297.099 223.604 266.087 224.283 260.138C224.681 257.049 224.843 253.936 224.768 250.823C224.768 250.823 224.479 241.513 223.503 237.193C223.503 237.193 222.449 218.474 222.344 213.293C222.297 210.814 222.428 203.581 222.576 196.704C222.739 189.184 222.924 182.092 222.924 182.092L221 167.022C221 167.022 222.924 166.829 223.503 167.596C223.763 167.836 224.046 168.051 224.347 168.238C227.667 170.461 239.399 177.297 239.399 177.297C239.399 177.297 245.892 179.854 247.447 183.517C249.002 187.18 250.082 189.779 250.836 190.822C251.59 191.866 252.001 196.771 252.001 196.771C252.001 196.771 254.236 205.799 255.98 207.328C257.725 208.857 259 218.584 259 218.584L243.584 230.586C243.584 230.586 242.229 250.552 241.94 251.324C241.65 252.096 247.553 269.353 247.553 269.353Z" fill="white"/>
<path d="M247.748 269.419C247.748 269.419 248.697 270.858 247.748 271.53C246.798 272.203 247.836 273.829 247.836 273.829C247.836 273.829 245.47 275.247 246.508 276.509C247.546 277.77 246.892 283.468 246.892 283.468L244.028 288.233C244.028 288.233 244.199 291.304 244.215 295.454C244.215 301.928 243.836 311.031 241.74 315.18L242.026 349.228C242.026 349.228 231.982 352.908 223.599 351.788L222.359 297.153C222.359 297.153 224.175 266.171 224.844 260.228C225.236 257.143 225.394 254.032 225.316 250.922C225.316 250.922 225.031 241.622 224.076 237.305C224.076 237.305 223.039 218.606 222.93 213.429C222.883 210.953 223.018 203.727 223.158 196.856C223.319 189.344 223.5 182.259 223.5 182.259L221 167C221 167 223.5 167 224.076 167.777C224.33 168.02 224.608 168.235 224.906 168.418C228.175 170.639 239.728 177.468 239.728 177.468C239.728 177.468 246.114 180.023 247.644 183.682C249.174 187.342 250.238 189.938 250.985 190.981C251.732 192.023 252.126 196.924 252.126 196.924C252.126 196.924 254.326 205.943 256.043 207.47C257.76 208.998 259 218.694 259 218.694L243.826 230.685C243.826 230.685 242.493 250.63 242.202 251.402C241.912 252.174 247.748 269.419 247.748 269.419Z" fill="white"/>
<path opacity="0.1" d="M229.172 185.633L230.4 189.666L223.935 197C224.079 189.457 224.242 182.333 224.242 182.333L222 167C222 167 224.242 167 224.758 167.781C224.985 168.024 225.234 168.238 225.502 168.42L231 186.282L229.172 185.633Z" fill="black"/>
<path d="M229.168 185.633L230.4 189.666L223.939 197C224.083 189.452 224.245 182.333 224.245 182.333L222 167C222 167 224.245 167 224.757 167.781C224.985 168.023 225.234 168.239 225.501 168.425L231 186.282L229.168 185.633Z" fill="white"/>
<path opacity="0.1" d="M229.992 144.476C229.996 146.389 229.698 148.29 229.108 150.108C228.908 150.14 228.703 150.088 228.54 149.965C228.404 145.187 226.073 140.702 223.207 136.885C222.402 135.733 221.426 134.712 220.314 133.859C219.189 133.007 217.79 132.607 216.39 132.739C214.812 132.957 213.418 134.04 211.824 134.178C209.72 134.353 207.837 132.882 205.748 132.808C204.031 132.824 202.404 133.587 201.283 134.9C200.186 136.209 199.37 137.735 198.889 139.38C198.062 141.874 197.612 144.48 197.553 147.109C197.527 148.595 197.385 150.459 196.017 151C196.225 148.79 195.506 146.593 194.034 144.943L194.003 144.911C194.003 144.763 194.003 144.625 194.003 144.476C193.891 137.913 197.297 131.8 202.911 128.486C208.525 125.171 215.475 125.171 221.089 128.486C226.703 131.8 230.109 137.913 229.997 144.476H229.992Z" fill="black"/>
<path d="M218.866 116.191C216.052 114.892 212.85 114.646 209.864 115.5C208.364 115.936 206.95 116.643 205.428 116.999C202.178 117.77 198.386 116.935 195.597 118.801C194.048 119.864 193.116 121.543 192.249 123.175L190.083 127.225C188.902 129.442 187.71 131.695 187.217 134.135C186.725 136.575 187.022 139.307 188.599 141.268C189.747 142.698 191.442 143.596 192.688 144.941C194.197 146.594 194.935 148.79 194.725 151C196.139 150.468 196.274 148.598 196.306 147.109C196.367 144.477 196.831 141.868 197.682 139.37C198.177 137.723 199.016 136.195 200.147 134.884C201.302 133.571 202.977 132.808 204.745 132.79C206.912 132.865 208.857 134.332 211.001 134.156C212.626 134.023 214.067 132.934 215.703 132.721C217.145 132.587 218.587 132.987 219.744 133.843C220.889 134.695 221.892 135.717 222.717 136.872C225.675 140.694 228.074 145.175 228.215 149.969C228.827 150.41 229.71 149.836 230.014 149.156C230.317 148.475 230.328 147.678 230.712 147.03C231.156 146.28 232.007 145.882 232.673 145.318C234.363 143.888 234.786 141.481 234.721 139.296C234.656 137.112 234.222 134.895 234.645 132.748C234.899 131.43 235.473 130.196 235.788 128.894C236.102 127.592 236.14 126.13 235.398 125.009C234.314 123.361 232.034 123.037 230.046 122.883C227.787 122.692 225.767 122.936 224.326 121.07C223.65 120.097 222.889 119.183 222.051 118.338C221.764 118.062 218.866 116.308 218.866 116.191Z" fill="#512E4E"/>
<path opacity="0.1" d="M162.06 226.977L156.698 217L155 232.394C155 232.394 155.944 239.232 155.754 240.28C155.564 241.328 159.623 250.727 159.623 250.727C159.623 250.727 173.029 274.761 178.504 276L197 262.697L192.095 256.428C192.095 256.428 190.397 255.762 189.971 256.428C189.971 256.428 180.864 240.657 179.92 239.516C178.976 238.374 179.161 236.097 179.161 236.097C179.161 236.097 177.744 234.579 178.216 233.153C178.688 231.728 175.482 226.786 175.482 226.786L178.406 224.034L162.06 226.977Z" fill="black"/>
<path d="M157.188 216L155.738 217.134L154 232.493C154 232.493 154.966 239.315 154.772 240.361C154.578 241.407 158.738 250.784 158.738 250.784C158.738 250.784 172.456 274.763 178.06 276L197 262.727L191.974 256.472C191.974 256.472 190.235 255.808 189.799 256.472C189.799 256.472 180.476 240.737 179.51 239.598C178.544 238.459 178.738 236.187 178.738 236.187C178.738 236.187 177.288 234.672 177.772 233.25C178.255 231.828 174.967 226.897 174.967 226.897L177.961 224.151L157.188 216Z" fill="white"/>
<path opacity="0.1" d="M246.574 275.326C247.684 276.599 246.985 282.312 246.985 282.312L243.922 287.098C243.922 287.098 244.105 290.187 244.117 294.35L238.968 295.869C238.024 296.147 236.996 295.977 236.208 295.412C235.42 294.848 234.971 293.958 235.001 293.025L235.889 266L247.9 270.336C246.879 271.006 248 272.65 248 272.65C248 272.65 245.454 274.054 246.574 275.326Z" fill="black"/>
<path d="M247.575 275.314C248.684 276.585 247.985 282.299 247.985 282.299L244.924 287.082C244.924 287.082 245.107 290.164 245.124 294.329L239.883 295.873C238.959 296.144 237.953 295.977 237.183 295.424C236.412 294.871 235.972 294.002 236.001 293.089L236.894 266L248.906 270.333C247.88 271.002 249 272.64 249 272.64C249 272.64 246.466 274.048 247.575 275.314Z" fill="white"/>
<path d="M250 263.436C250 263.436 249.321 268.608 247.621 268.911C245.921 269.214 245.159 277.279 243.464 276.993C241.769 276.706 242.891 269.495 242.951 268.096C243.012 266.697 241.104 260.902 242.531 259.585C243.958 258.269 248.476 259.585 248.476 259.585L250 263.436Z" fill="#CF6F80"/>
<path opacity="0.1" d="M253.099 225.184L256.482 218C256.482 218 257.827 223.475 257.827 226.4C257.827 229.325 259.709 229.613 259.709 229.613C259.709 229.613 261.77 232.179 260.684 234.047C259.597 235.914 259.158 240.564 259.158 240.564C259.158 240.564 259.514 249.436 257.9 250.663C256.287 251.889 255.951 254.819 255.951 254.819C255.951 254.819 252.987 260.387 253.08 261.711C253.172 263.035 248.956 272 248.956 272C248.956 272 251.018 260.859 239.003 256.046C239.003 256.046 238.91 252.264 239.807 251.227C240.704 250.191 242.103 249.719 241.225 244.479C240.348 239.24 240.972 232.979 240.972 231.722C240.972 230.465 243.663 222.624 243.663 222.624L253.099 225.184Z" fill="black"/>
<path d="M257.53 217L260.481 218.026C260.481 218.026 261.83 223.499 261.83 226.422C261.83 229.346 263.71 229.633 263.71 229.633C263.71 229.633 265.77 232.198 264.684 234.065C263.598 235.932 263.164 240.579 263.164 240.579C263.164 240.579 263.52 249.447 261.908 250.673C260.296 251.899 259.936 254.828 259.936 254.828C259.936 254.828 256.979 260.393 257.072 261.716C257.164 263.039 252.947 272 252.947 272C252.947 272 255.012 260.865 243.002 256.053C243.002 256.053 242.915 252.273 243.811 251.237C244.707 250.201 246.105 249.729 245.228 244.492C244.351 239.255 244.975 232.998 244.975 231.741C244.975 230.485 247.663 222.647 247.663 222.647L257.53 217Z" fill="white"/>
<path opacity="0.1" d="M187 405.588C187 405.588 191.511 402.637 194.471 404.781C197.431 406.925 187 405.588 187 405.588Z" fill="black"/>
<path opacity="0.1" d="M227 396.03C227 396.03 230.995 395.417 234.349 399.726C237.704 404.035 227 396.03 227 396.03Z" fill="black"/>
<g opacity="0.1">
<path d="M232.489 143.846C231.827 144.41 230.976 144.814 230.535 145.564C230.158 146.207 230.147 147 229.845 147.691C229.544 148.383 228.666 148.947 228.058 148.511C227.918 143.723 225.527 139.229 222.592 135.399C221.772 134.243 220.775 133.22 219.636 132.367C218.484 131.511 217.049 131.111 215.614 131.245C213.998 131.463 212.577 132.548 210.945 132.681C208.792 132.862 206.858 131.388 204.721 131.314C202.963 131.331 201.299 132.097 200.155 133.415C199.031 134.725 198.196 136.252 197.705 137.899C196.858 140.398 196.397 143.009 196.337 145.644C196.305 147.128 196.165 148.979 194.775 149.532C194.808 149.925 194.808 150.32 194.775 150.713C196.175 150.181 196.315 148.309 196.348 146.819C196.408 144.184 196.869 141.574 197.715 139.074C198.207 137.426 199.041 135.897 200.165 134.585C201.312 133.271 202.975 132.507 204.732 132.489C206.885 132.564 208.824 134.032 210.956 133.856C212.572 133.723 214.004 132.633 215.625 132.42C217.06 132.286 218.494 132.687 219.647 133.543C220.785 134.396 221.783 135.419 222.603 136.574C225.538 140.399 227.928 144.883 228.068 149.681C228.677 150.122 229.555 149.548 229.856 148.867C230.158 148.186 230.168 147.388 230.545 146.739C230.987 145.989 231.838 145.59 232.5 145.027C234.18 143.596 234.6 141.186 234.535 139C234.535 138.931 234.535 138.862 234.535 138.798C234.433 140.691 233.922 142.622 232.489 143.846Z" fill="black"/>
<path d="M192.74 143.468C191.501 142.122 189.811 141.223 188.674 139.798C187.718 138.536 187.171 137.017 187.107 135.441C186.938 137.41 187.494 139.373 188.674 140.968C189.811 142.399 191.501 143.298 192.74 144.644C193.929 145.96 194.643 147.629 194.77 149.388C194.936 147.224 194.203 145.087 192.74 143.468Z" fill="black"/>
<path d="M235.585 127.41C235.268 128.713 234.702 129.952 234.444 131.266C234.291 132.144 234.235 133.036 234.277 133.926C234.295 133.419 234.351 132.914 234.444 132.415C234.702 131.096 235.268 129.862 235.585 128.559C235.77 127.84 235.83 127.095 235.763 126.356C235.729 126.711 235.67 127.063 235.585 127.41Z" fill="black"/>
</g>
<ellipse opacity="0.1" cx="92.5" cy="418.5" rx="50.5" ry="8.5" fill="#09A4D8"/>
<rect x="93" y="262" width="2" height="74" fill="#535461"/>
<path d="M114.988 334.997L114.786 338.314L114.497 343.009L114.378 344.96L114.094 349.654L113.969 351.605L113.68 356.299L110.412 409.54C110.117 414.294 106.209 417.998 101.486 418H84.4938C79.7721 417.998 75.8658 414.293 75.5736 409.54L72.321 356.263L72.0314 351.568L71.9124 349.618L71.6229 344.923L71.5039 342.972L71.2143 338.278L71.0075 334.96C70.9349 333.67 71.393 332.406 72.2738 331.468C73.1545 330.529 74.3801 329.998 75.6615 330H110.417C111.693 330.011 112.909 330.554 113.775 331.501C114.64 332.447 115.08 333.713 114.988 334.997Z" fill="#3F3D56"/>
<path d="M114 339L113.714 344H71.2856L71 339H114Z" fill="#9D9CB5"/>
<path d="M115 346L114.714 351H72.2911L72 346H115Z" fill="#9D9CB5"/>
<path d="M114 353L113.715 358H72.2899L72 353H114Z" fill="#9D9CB5"/>
<path d="M65.7826 290.593C84.2792 304.403 92 326 92 326C92 326 69.7089 325.211 51.2073 311.401C32.7056 297.592 25 276 25 276C25 276 47.281 276.784 65.7826 290.593Z" fill="#09A4D8"/>
<path d="M25 276C25 276 48.137 289.25 55.5572 300.221C62.9775 311.192 92 326 92 326" stroke="#535461" stroke-width="2"/>
<path d="M79.1272 262.883C89.6142 270.336 94 282 94 282C94 282 81.3597 281.575 70.8675 274.122C60.3753 266.669 56 255 56 255C56 255 68.635 255.425 79.1272 262.883Z" fill="#09A4D8"/>
<path d="M56 255C56 255 69.1206 262.157 73.3269 268.08C77.5333 274.003 94 282 94 282" stroke="#535461" stroke-width="2"/>
<path d="M107.389 281.793C95.5126 295.321 93 313 93 313C93 313 109.745 308.741 121.611 295.207C133.477 281.674 136 264 136 264C136 264 119.265 268.265 107.389 281.793Z" fill="#09A4D8"/>
<path d="M136 264C136 264 120.533 277.869 116.601 287.424C112.669 296.979 93 313 93 313" stroke="#535461" stroke-width="2"/>
<path fill-rule="evenodd" clip-rule="evenodd" d="M543.743 277.491C543.743 277.491 535.155 234.523 538.442 229.176C538.442 229.176 538.562 224.207 538.364 217.872V217.145C538.943 217.533 539.546 217.882 540.169 218.191C543.198 219.756 546.675 220.208 550 219.468L547.399 216.554C546.775 215.858 546.125 215.105 545.99 214.184C545.866 213.343 546.168 212.585 546.467 211.834C546.495 211.763 546.524 211.692 546.551 211.621C549.022 205.344 549.152 197.45 544.393 192.658C542.519 190.782 541.307 188.651 540.104 186.538C538.726 184.116 537.361 181.717 535.03 179.753C531.842 177.059 530.089 173.11 528.435 169.291C527.035 166.064 525.626 162.81 524.825 159.389C524.587 158.371 524.404 157.34 524.221 156.309L524.22 156.309C523.922 154.632 523.624 152.955 523.093 151.338C522.234 148.728 520.627 146.191 518.115 145.024C517.792 144.875 517.456 144.749 517.12 144.623C516.526 144.4 515.932 144.177 515.41 143.826C514.593 143.272 514.024 142.454 513.457 141.637C513.28 141.382 513.103 141.128 512.918 140.881C508.981 135.65 495.795 138.731 489.553 140.855C487.856 141.39 486.285 142.266 484.934 143.429L484.992 143.335C485.023 143.282 485.059 143.23 485.094 143.178C485.112 143.152 485.13 143.125 485.148 143.099C484.464 143.655 483.874 144.317 483.4 145.061C482.86 145.921 482.506 146.866 482.149 147.821C481.905 148.474 481.659 149.131 481.351 149.769C481.115 150.247 480.603 150.945 480.009 151.754L480.009 151.754C478.296 154.089 475.906 157.347 477.533 158.897C477.686 159.037 477.862 159.15 478.053 159.232C478.875 159.576 479.78 159.667 480.654 159.493L480.56 159.718C479.812 161.56 479.429 163.53 479.431 165.52C479.431 174.114 486.479 181.082 495.181 181.082C496.817 181.084 498.444 180.831 500.003 180.334C500.021 180.433 500.038 180.533 500.055 180.632C500.072 180.732 500.089 180.831 500.107 180.93C500.107 180.979 500.117 181.028 500.127 181.078C500.134 181.107 500.14 181.136 500.144 181.166L499.868 181.553C499.854 181.529 499.838 181.506 499.821 181.485L491.655 192.962C490.406 193.846 483.218 199.077 482.812 203C482.386 207.295 481.959 212.322 481.959 212.322L481.902 213.4C481.18 214.007 480.229 214.265 479.301 214.106C476.752 213.687 476.752 223.522 476.752 223.522C476.752 223.522 475.057 225.091 473.892 223.731C472.726 222.371 469.647 226.979 469.647 226.979L450.35 227.816L449.907 227.843L448.867 224.605C448.634 223.894 447.875 223.504 447.166 223.731C447.086 223.758 447.007 223.791 446.932 223.83L446.859 223.872L446.724 223.966L446.656 224.029C446.619 224.063 446.584 224.1 446.552 224.139L446.49 224.212L446.459 224.244C446.215 224.582 446.146 225.017 446.272 225.415L447.166 228.193C443.442 228.946 439.634 231.07 442.74 236.918L427 233.994L432.092 238.294L458.381 243.75C458.032 244.378 458.261 245.288 459.348 246.57C464.03 252.099 472.56 253.6 475.993 253.987C476.9 256.027 478.032 257.957 479.369 259.742L479.072 265.25C479.072 265.25 470.381 307.234 468.789 309.363C469.592 308.448 470.328 307.474 470.989 306.45C468.466 315.076 464.94 326.882 464.014 328.65C462.526 331.475 461.148 342.905 462.844 343.637C463.364 343.862 464.851 343.753 466.974 343.59V344.537L466.88 380.417C466.88 380.417 467.306 402.424 466.136 404.522C464.966 406.619 464.654 411.019 464.654 411.019C464.654 411.019 459.972 419.697 456.264 423.186C456.238 423.213 456.211 423.238 456.18 423.259L456.066 422.443C456.066 422.443 451.608 428.103 441.746 427.784C441.746 427.784 435.811 431.666 444.612 431.875C453.413 432.084 464.654 431.561 464.654 431.561C464.654 431.561 472.503 419.53 479.077 421.099V430.217H481.09V420.953C482.977 419.704 484.272 417.732 484.674 415.497C485.025 413.177 484.131 410.844 482.323 409.361C481.516 408.627 481.051 407.588 481.038 406.494L480.966 406.557C480.966 406.441 480.947 406.323 480.928 406.204C480.917 406.134 480.906 406.063 480.898 405.992C480.321 401.284 479.598 391.57 482.152 384.382C485.652 374.527 486.713 360.801 484.165 352.63C483.342 350.018 482.667 347.361 482.141 344.673C482.079 344.333 482.022 344.009 481.97 343.705C483.712 343.942 485.437 344.292 487.135 344.752C493.038 346.389 505.954 346.692 516.981 346.603C517.007 346.907 517.038 347.226 517.074 347.545C517.271 349.763 517.682 351.957 518.302 354.094C519.686 358.279 520.32 376.729 520.32 376.729C520.32 376.729 522.104 391.899 521.132 398.072C520.611 401.503 520.091 404.951 519.795 408.414V408.482C519.795 408.482 516.872 416.851 514.734 421.397C514.699 421.473 514.663 421.549 514.627 421.623C514.609 421.662 514.59 421.7 514.573 421.737C514.003 421.789 513.442 421.914 512.903 422.109C512.903 422.109 510.037 427.863 507.181 428.815C504.326 429.767 505.272 432.9 511.738 431.749C518.203 430.599 527.966 429.657 527.966 429.657L528.388 423.788L530.375 421.287L529.855 427.141L531.972 426.722L531.691 419.603L534.942 415.512C534.942 415.512 538.869 411.997 533.033 405.081V405.233C533.009 405.195 532.986 405.157 532.963 405.118L532.963 405.118C532.925 405.055 532.887 404.991 532.845 404.93V404.898C531.878 403.392 531.108 400.583 532.518 395.598C535.066 386.59 536.549 378.414 536.549 378.414C536.549 378.414 542.239 356.511 535.399 346.148H535.701C535 344.69 534.505 343.141 534.229 341.545C534.194 341.357 534.163 341.163 534.135 340.964C539.196 340.671 544.164 339.751 548.216 337.763C548.215 337.762 548.209 337.648 548.198 337.432C548.189 337.244 548.175 336.979 548.159 336.642C547.779 329.034 545.585 285.047 543.743 277.491ZM479.488 241.239V241.344L478.448 241.396L479.488 241.239ZM475.452 241.961C475.589 241.851 475.749 241.774 475.92 241.736C473.808 241.998 471.593 242.259 469.46 242.437L470.235 243.222C471.873 243.499 473.013 243.745 473.013 243.745L474.635 244.111C474.724 243.337 475.005 242.598 475.452 241.961Z" fill="url(#paint1_linear)"/>
<path d="M528.596 418.989L528 426L530 425.604L529.699 418L528.596 418.989Z" fill="#1D2366"/>
<path d="M482.621 383.437C480.091 390.614 480.806 400.299 481.374 405.004C481.585 406.743 481.779 407.801 481.779 407.801C481.779 407.801 477.997 416.381 477.681 416.706C477.366 417.031 466.55 423.605 466.55 423.605L458.991 428C458.991 428 451.321 424.653 454.998 423.5C455.749 423.2 456.426 422.741 456.981 422.154C460.663 418.67 465.287 410.011 465.287 410.011C465.287 410.011 465.603 405.616 466.76 403.526C467.918 401.436 467.497 379.472 467.497 379.472L467.586 343.667V339L481.974 339.105C482.065 340.689 482.272 342.265 482.595 343.819C483.111 346.502 483.78 349.154 484.599 351.761C487.134 359.927 486.082 373.605 482.621 383.437Z" fill="#FFB0B1"/>
<path opacity="0.1" d="M482 407.789C482 407.789 478.324 416.374 478.017 416.699C477.71 417.024 467.198 423.602 467.198 423.602L459.851 428C459.851 428 452.396 424.651 455.97 423.497C456.7 423.197 457.358 422.737 457.897 422.15L458.214 424.441L460.664 424.336L481.627 405C481.811 406.73 482 407.789 482 407.789Z" fill="black"/>
<path d="M480.477 405L459.531 424.182L457.098 424.285L456.59 420.67C456.59 420.67 452.333 426.238 442.874 425.928C442.874 425.928 437.194 429.745 445.612 429.951C454.03 430.158 464.779 429.641 464.779 429.641C464.779 429.641 472.288 417.762 478.572 419.312V428.283H480.502V419.229C482.316 417.988 483.553 416.048 483.926 413.858C484.266 411.587 483.417 409.301 481.686 407.825C480.917 407.093 480.48 406.071 480.477 405Z" fill="#1D2366"/>
<path d="M532.002 395.803C530.641 400.76 531.383 403.552 532.314 405.05V405.081C533.508 406.93 534.339 408.998 534.76 411.171L534.842 411.64L525.242 425.913L520.033 428C520.033 428 511.657 425.083 513.187 424.248C513.57 424.044 514.169 422.959 514.855 421.461C516.902 416.947 519.726 408.619 519.726 408.619V408.551C520.023 405.112 520.494 401.684 521.016 398.271C521.952 392.129 520.233 377.053 520.233 377.053C520.233 377.053 519.619 358.721 518.288 354.551C517.688 352.431 517.288 350.258 517.096 348.06C516.82 345.451 516.758 343.301 516.758 343.301C516.758 343.301 522.274 335.473 532.385 343.927C533.194 344.601 533.905 345.388 534.499 346.265C541.483 356.399 535.86 378.723 535.86 378.723C535.86 378.723 534.453 386.843 532.002 395.803Z" fill="#FFB0B1"/>
<path opacity="0.1" d="M536 409.694L526.331 423.919L521.084 426C521.084 426 512.647 423.092 514.188 422.26C514.575 422.057 515.178 420.976 515.868 419.483C519.44 419.452 521.29 422.884 521.29 422.884L525.816 422.156C525.816 422.156 531.784 410.318 533.124 409.595C534.464 408.872 533.33 404.191 533.33 404.191V403C533.366 403.042 533.397 403.088 533.438 403.13V403.161C534.642 405.004 535.478 407.066 535.902 409.231L536 409.694Z" fill="black"/>
<path d="M519.704 423.383C519.704 423.383 517.101 418.73 512.113 420.448C512.113 420.448 509.306 426.024 506.5 426.926C503.693 427.828 504.631 430.87 510.972 429.759C517.314 428.649 526.874 427.732 526.874 427.732L527.29 422.06L533.736 414.067C533.736 414.067 537.579 410.676 531.862 404V405.161C531.862 405.161 533.008 409.723 531.654 410.427C530.3 411.132 524.291 422.673 524.291 422.673L519.704 423.383Z" fill="#1D2366"/>
<path opacity="0.1" d="M482.38 339.109C482.471 340.753 482.678 342.387 483 344C477.086 343.103 471.598 343.549 468 343.842V339L482.38 339.109Z" fill="black"/>
<path opacity="0.1" d="M534 347.513C534 347.513 525.942 347.917 516.332 348C516.06 345.41 516 343.276 516 343.276C516 343.276 521.429 335.507 531.381 343.898C532.177 344.567 532.877 345.348 533.461 346.218C533.617 346.66 533.797 347.092 534 347.513Z" fill="black"/>
<path d="M534 344.504C534 344.504 497.603 346.263 486.509 343.155C475.415 340.046 464.42 342.739 462.763 342.018C461.107 341.297 462.452 329.998 463.906 327.201C465.36 324.403 473.338 296.113 473.338 296.113L481.014 256.119L489.101 253.892L489.672 253.731L503.762 249.849L514.087 247C514.087 247 534.618 327.097 532.857 333.003C532.218 335.265 532.115 337.644 532.556 339.952C532.825 341.529 533.311 343.061 534 344.504Z" fill="#1D2366"/>
<path d="M454.105 229C454.105 229 446.304 236.144 452.21 240.126C458.116 244.108 462 240.507 462 240.507L454.105 229Z" fill="#C7DAF5"/>
<path opacity="0.1" d="M454.105 229C454.105 229 446.304 236.144 452.21 240.126C458.116 244.108 462 240.507 462 240.507L454.105 229Z" fill="black"/>
<path d="M515 176.995C515 176.995 514.124 177.794 512.804 178.971C510.924 180.655 508.141 183.117 505.672 185.18C502.253 188.031 499.433 190.125 500.442 188.338C501.452 186.552 501.26 183.44 500.758 180.527C500.72 180.333 500.688 180.138 500.651 179.949C500.235 177.81 499.684 175.697 499 173.622C499 173.622 504.524 166.784 507.58 164.086C508.718 163.062 509.514 162.643 509.562 163.354C509.615 164.311 510.363 166.425 511.292 168.667C511.319 168.739 511.346 168.806 511.378 168.877C511.998 170.413 512.697 171.989 513.312 173.351C514.252 175.439 515 176.995 515 176.995Z" fill="#FFB0B1"/>
<path opacity="0.1" d="M512 168.032C510.89 173.629 506.615 178.216 500.846 180C500.4 177.6 499.783 175.23 499 172.906C499 172.906 509.924 159.681 510.092 162.358C510.132 163.373 510.984 165.623 512 168.032Z" fill="black"/>
<path opacity="0.1" d="M497.647 184.852L498.903 183C498.903 183 499.734 188.311 502.792 185.968C505.851 183.626 506 203.597 506 203.597L502.718 255L479 253.513L479.672 228.675L482.357 216.154L488.996 197.952L492.946 191.937L497.647 184.852Z" fill="black"/>
<path d="M506 203.615L503.01 250.077L502.696 255L489.465 254.171L488.967 254.14L479 253.514L479.673 228.679L482.359 216.163L489.002 197.967L492.953 191.954L497.658 184.846L498.914 183C498.914 183 499.746 188.309 502.806 185.967L502.87 185.92C505.86 183.939 506 203.615 506 203.615Z" fill="#1D2366"/>
<path d="M483.538 212C483.538 212 482.239 214.661 479.63 214.23C477.021 213.799 477.027 223.809 477.027 223.809C477.027 223.809 475.293 225.406 474.098 224.022C472.902 222.638 469.75 227.316 469.75 227.316L450 228.168C450 228.168 458.788 232.1 457.065 244C457.065 244 486.902 242.191 487.88 239.429C488.858 236.667 483.538 212 483.538 212Z" fill="white"/>
<path opacity="0.03" d="M483.538 212C483.538 212 482.239 214.661 479.63 214.23C477.021 213.799 477.027 223.809 477.027 223.809C477.027 223.809 475.293 225.406 474.098 224.022C472.902 222.638 469.75 227.316 469.75 227.316L450 228.168C450 228.168 458.788 232.1 457.065 244C457.065 244 486.902 242.191 487.88 239.429C488.858 236.667 483.538 212 483.538 212Z" fill="black"/>
<path d="M427 234L431.983 238.297L473 247L467.913 241.758L427 234Z" fill="white"/>
<path d="M499.599 185.902C498.897 186.95 496.887 192.318 495.209 197.005C493.81 200.91 492.642 204.344 492.642 204.344C492.642 204.344 489.914 221.717 488.52 224.857C487.127 227.997 487.882 240.243 487.882 240.243L482.689 270.485C482.689 270.485 480.336 286.081 476.702 295.396C473.116 304.565 469.123 308.864 469 309C470.608 306.872 479.371 264.965 479.371 264.965L482.265 212.113C482.265 212.113 482.689 207.091 483.118 202.797C483.546 198.504 492.229 192.643 492.229 192.643L500.601 181C501.442 182.101 500.88 184.02 499.599 185.902Z" fill="white"/>
<path d="M477.391 255C477.391 255 465.718 254.457 460.064 247.197C454.41 239.937 473.133 244.3 473.133 244.3L478 245.493L477.391 255Z" fill="#FFB0B1"/>
<path opacity="0.1" d="M532.895 333.697C532.268 335.968 532.167 338.357 532.6 340.675C519.826 341.603 506.16 338.07 506.16 338.07C503.614 340.467 496.909 344 496.909 344L493.253 297.619C490.916 291.366 490 258.602 490 258.602C490 258.602 490.209 256.887 490.509 254.318C490.509 254.256 490.509 254.188 490.535 254.125C491.446 246.949 493.253 233.478 494.139 231.659C495.361 229.158 490.382 222.503 490.382 222.503L492.648 202.726L492.922 200.339C497.698 198.156 501.359 191.183 501.359 191.183L504.169 186.144C507.224 184.137 507.382 203.8 507.382 203.8L504.327 250.227L514.449 247.366C514.449 247.366 534.621 327.767 532.895 333.697Z" fill="black"/>
<path d="M545 337.502C530.923 344.63 505.337 338.027 505.337 338.027C502.763 340.441 495.985 344 495.985 344L492.284 297.284C489.926 290.986 489 257.986 489 257.986C489 257.986 491.975 233.363 493.21 230.849C493.571 230.114 493.396 229.022 492.968 227.846C490.868 222.25 490.096 216.226 490.714 210.267L491.702 201.706L491.975 199.308C496.808 197.103 500.509 190.08 500.509 190.08L503.082 185.482L507.818 177.01L510.062 173L510.443 173.352L513.351 176.039C513.351 176.039 514.586 177.089 516.439 178.664C520.469 182.128 527.433 188.227 531.026 191.959C534.186 195.245 535.185 208.026 535.473 217.647C535.663 223.983 535.55 228.948 535.55 228.948C532.364 234.297 540.697 277.239 540.697 277.239C542.638 285.537 545 337.502 545 337.502Z" fill="white"/>
<path opacity="0.03" d="M520.666 190.733C520.666 190.733 510.704 209.298 511.861 216.354C513.018 223.41 516.309 231.396 514.722 233.261C513.616 234.694 511.89 235.538 510.056 235.542C508.464 235.646 504.218 238.551 504.218 238.862C504.218 239.174 500.296 239.174 496.788 240.629C493.28 242.084 488.1 242.91 488.1 242.91C488.1 242.91 478.015 242.598 477.076 243.533C476.137 244.469 475.171 250.065 477.182 254.528C479.194 258.991 481.428 262.322 483.116 262.93C484.804 263.538 495.514 260.025 504.202 259.194C512.891 258.363 522.322 251.623 522.322 251.623C522.322 251.623 532.709 247.986 534.529 241.871C536.35 235.755 532.305 202.143 532.305 202.143C532.305 202.143 529.248 186.477 520.666 190.733Z" fill="black"/>
<path opacity="0.03" d="M516.676 189.731C516.676 189.731 506.708 208.302 507.877 215.353C509.045 222.404 512.327 230.395 510.734 232.266C509.632 233.7 507.905 234.545 506.071 234.547C504.478 234.651 500.23 237.555 500.23 237.867C500.23 238.179 496.305 238.179 492.795 239.629C489.285 241.078 484.102 241.91 484.102 241.91C484.102 241.91 474.012 241.598 473.077 242.533C472.142 243.468 471.165 249.07 473.183 253.528C475.201 257.986 477.432 261.322 479.12 261.93C480.809 262.538 491.526 259.025 500.219 258.199C508.912 257.373 518.349 250.623 518.349 250.623C518.349 250.623 528.736 246.986 530.537 240.876C532.337 234.765 528.311 201.142 528.311 201.142C528.311 201.142 525.263 185.481 516.676 189.731Z" fill="black"/>
<path d="M520.654 189.726C520.654 189.726 510.692 208.298 511.86 215.349C513.027 222.401 516.307 230.393 514.72 232.258C513.619 233.696 511.891 234.543 510.055 234.545C508.463 234.649 504.217 237.553 504.217 237.86C504.217 238.167 500.3 238.172 496.787 239.627C493.274 241.082 488.099 241.908 488.099 241.908C488.099 241.908 478.015 241.596 477.076 242.532C476.137 243.467 475.171 249.069 477.182 253.527C479.194 257.986 481.428 261.322 483.116 261.93C484.803 262.538 495.513 259.025 504.201 258.193C512.889 257.362 522.32 250.622 522.32 250.622C522.32 250.622 532.706 246.985 534.527 240.869C536.347 234.753 532.33 201.137 532.33 201.137C532.33 201.137 529.23 185.496 520.654 189.726Z" fill="white"/>
<path opacity="0.1" d="M518.758 239.517C518.758 239.517 510.822 237.779 513.584 240.676C516.345 243.574 516.329 246.112 519.71 245.996C523.091 245.88 518.758 239.517 518.758 239.517Z" fill="black"/>
<path opacity="0.1" d="M531.995 297C531.995 297 528.187 299.072 535.47 303.848C542.753 308.625 531.995 297 531.995 297Z" fill="black"/>
<path opacity="0.1" d="M526.151 313C526.151 313.322 524.909 324.81 529.556 327.682C534.202 330.555 526.151 313 526.151 313Z" fill="black"/>
<path d="M452.042 227C448.201 227.133 439.904 228.304 444.206 236.325C448.01 243.424 454.403 238.679 458 235.079C457.123 231.723 454.99 228.831 452.042 227Z" fill="#FFB0B1"/>
<path d="M457.35 234.655L457.65 234.345L457.35 234.655Z" fill="#FFB0B1"/>
<path opacity="0.1" d="M519 179.337C515.005 181.929 511.655 184.116 511 184.57C509.21 185.829 505.798 193.219 503.597 196.991C501.844 200.027 496.148 200.807 494 201L494.276 198.744C499.16 196.67 502.9 190.065 502.9 190.065L512.555 174L515.879 176.868C515.879 176.868 517.127 177.856 519 179.337Z" fill="black"/>
<path d="M519 179.337C515.005 181.929 511.655 184.116 511 184.575C509.21 185.829 505.798 193.219 503.597 196.991C501.844 200.027 496.148 200.807 494 201L494.276 198.744C499.16 196.67 502.9 190.065 502.9 190.065L512.555 174L515.879 176.858C515.879 176.858 517.127 177.836 519 179.337Z" fill="#DCE7FF"/>
<path d="M511 165.997C511.002 169.235 510.02 172.397 508.184 175.064C503.703 181.581 495.133 183.846 488.017 180.394C480.902 176.941 477.377 168.808 479.722 161.255C482.068 153.703 489.58 148.997 497.399 150.182C505.219 151.368 510.999 158.088 511 165.997Z" fill="#FFB0B1"/>
<path opacity="0.1" d="M538 218C535.875 216.687 534.144 214.82 532.992 212.598C532.118 210.864 531.538 208.862 530.046 207.632C528.701 206.529 526.907 206.261 525.232 205.767C519.727 204.133 515.112 199.088 514.939 193.329C514.856 190.618 515.698 187.912 515.316 185.226C515.099 183.707 514.497 182.268 513.568 181.049C513.107 180.466 512.602 179.919 512.056 179.415C511.324 178.721 510.554 178.048 509.885 177.313C509.463 176.857 509.094 176.355 508.786 175.815C508.537 175.374 508.335 174.907 508.184 174.423C507.137 171.207 508.09 167.392 506.939 164.139L506.876 163.961C506.441 162.805 505.557 161.649 504.327 161.559C503.098 161.47 502.046 162.495 500.874 162.952C498.42 163.908 495.772 162.279 493.726 160.619C491.68 158.958 489.372 157.061 486.772 157.429C485.05 157.676 483.69 158.853 482.104 159.463C481.746 159.602 481.377 159.709 481 159.783C483.768 152.852 491.043 148.868 498.345 150.285C505.646 151.702 510.919 158.122 510.915 165.59C510.917 166.683 510.803 167.773 510.575 168.842C510.601 168.916 510.628 168.984 510.659 169.058C511.266 170.634 511.952 172.253 512.553 173.65L515.51 176.341C515.51 176.341 516.766 177.392 518.649 178.968C522.747 182.436 529.826 188.542 533.479 192.278C536.692 195.578 537.697 208.368 538 218Z" fill="black"/>
<path d="M482.246 149.84C482.986 148.308 483.353 146.593 484.238 145.14C485.536 143.035 487.802 141.688 490.13 140.872C496.208 138.741 509.053 135.646 512.892 140.872C513.647 141.925 514.273 143.093 515.318 143.819C516.114 144.372 517.077 144.609 517.951 145.024C520.398 146.193 521.96 148.74 522.793 151.34C523.626 153.939 523.874 156.729 524.485 159.407C525.266 162.844 526.637 166.102 528.002 169.338C529.611 173.159 531.318 177.122 534.422 179.822C538.659 183.506 539.595 188.721 543.527 192.763C548.183 197.563 548.033 205.483 545.632 211.772C545.317 212.598 544.96 213.461 545.084 214.34C545.208 215.219 545.85 216.019 546.455 216.719L549 219.64C542.978 221.119 536.165 217.919 533.362 212.304C532.498 210.567 531.924 208.567 530.444 207.33C529.12 206.225 527.34 205.962 525.69 205.467C520.248 203.825 515.685 198.768 515.514 193C515.432 190.289 516.264 187.579 515.887 184.895C515.677 183.363 515.08 181.912 514.154 180.685C512.731 178.796 510.584 177.527 509.426 175.422C507.465 171.901 508.955 167.328 507.543 163.549C507.108 162.391 506.239 161.234 505.023 161.144C503.808 161.055 502.768 162.081 501.604 162.539C499.183 163.497 496.565 161.87 494.543 160.202C492.52 158.534 490.238 156.639 487.662 157.013C485.96 157.255 484.62 158.434 483.053 159.05C481.894 159.502 479.546 159.907 478.532 158.913C476.39 156.908 481.351 151.713 482.246 149.84Z" fill="#591D4B"/>
<path opacity="0.1" d="M534.913 210.652C534.044 208.936 533.475 206.96 531.995 205.743C530.671 204.651 528.891 204.385 527.236 203.896C521.799 202.279 517.236 197.281 517.06 191.581C516.977 188.903 517.81 186.219 517.438 183.567C517.221 182.062 516.624 180.639 515.705 179.432C514.277 177.565 512.13 176.312 510.976 174.232C509.016 170.758 510.506 166.238 509.088 162.499C508.659 161.36 507.784 160.216 506.574 160.122C505.363 160.029 504.313 161.053 503.154 161.506C500.733 162.452 498.11 160.84 496.093 159.196C494.075 157.553 491.783 155.676 489.212 156.04C487.51 156.284 486.165 157.449 484.603 158.052C483.444 158.5 481.09 158.905 480.076 157.922C477.945 155.842 482.906 150.719 483.796 148.878C484.536 147.36 484.903 145.669 485.793 144.234C485.839 144.156 485.891 144.078 485.943 144C485.277 144.554 484.703 145.211 484.241 145.945C483.356 147.38 482.989 149.065 482.249 150.589C481.354 152.43 476.393 157.569 478.529 159.633C479.564 160.621 481.892 160.216 483.051 159.769C484.603 159.16 485.958 157.995 487.66 157.756C490.247 157.387 492.523 159.264 494.541 160.907C496.558 162.551 499.197 164.163 501.607 163.217C502.766 162.764 503.78 161.745 505.022 161.838C506.263 161.932 507.091 163.071 507.541 164.215C508.954 167.949 507.464 172.469 509.424 175.948C510.583 177.992 512.73 179.271 514.153 181.149C515.079 182.361 515.676 183.795 515.886 185.309C516.263 187.962 515.431 190.64 515.513 193.318C515.684 199.039 520.247 204.016 525.689 205.639C527.329 206.128 529.119 206.388 530.443 207.48C531.928 208.702 532.513 210.678 533.361 212.394C536.165 217.944 542.978 221.106 549 219.644L547.8 218.282C542.58 218.36 537.298 215.374 534.913 210.652Z" fill="black"/>
<path opacity="0.1" d="M497.728 186.936C497.088 187.981 495.257 193.33 493.729 198C492.299 197.405 491 193.607 491 193.607L498.626 182C499.408 183.149 498.895 185.056 497.728 186.936Z" fill="black"/>
<path d="M497.728 184.933C497.088 185.978 495.257 191.329 493.729 196C492.299 195.41 491 191.605 491 191.605L498.626 180C499.408 181.144 498.895 183.057 497.728 184.933Z" fill="#DCE7FF"/>
<path d="M451.506 238.862L447.062 224.722C446.956 224.388 446.986 224.025 447.146 223.713C447.306 223.401 447.582 223.166 447.914 223.061C448.603 222.844 449.336 223.227 449.556 223.92L454 238.044L453.559 241L451.506 238.862Z" fill="#BE8B87"/>
<path opacity="0.1" d="M448.28 223.459C448.991 223.239 449.75 223.623 449.977 224.319L454.556 238.442L454.212 240.658L454.545 241L455 238.044L450.395 223.92C450.168 223.227 449.412 222.844 448.703 223.061C448.416 223.152 448.169 223.334 448 223.578C448.09 223.531 448.184 223.491 448.28 223.459Z" fill="white"/>
<path d="M452 239.539L454 239L453.708 240.639L453.646 241L453.062 240.482L452 239.539Z" fill="#EFC8C4"/>
<path d="M453 241.188C453.054 241.127 453.121 241.076 453.197 241.039C453.289 240.987 453.405 240.987 453.497 241.039C453.54 241.086 453.577 241.138 453.605 241.193C453.69 241.321 453.836 241.408 454 241.428L453.904 242L453 241.188Z" fill="#727A9C"/>
<path d="M447 230C447 230 455.745 229.949 453.686 233.746C451.627 237.543 448.41 238 448.41 238L447 230Z" fill="#FFB0B1"/>
<path fill-rule="evenodd" clip-rule="evenodd" d="M388.999 59H389.388C413.533 59.2333 432.987 78.8929 433 103.073C433 117.501 426.695 137.973 414.385 154.818C390.947 186.922 352.003 215 352.003 215C352.003 215 313.058 186.917 289.615 154.818C277.31 137.973 271 117.501 271 103.073C271.013 78.8909 290.471 59.2304 314.618 59H315.006C330.466 59 344.138 67.192 352.003 79.2802C359.867 67.192 373.539 59 388.999 59ZM375.71 151.674C377 155.044 380.225 157.274 383.829 157.288L383.844 157.309C388.284 157.309 392.009 153.955 392.478 149.533C392.948 145.112 390.011 141.048 385.671 140.113C381.33 139.177 376.984 141.672 375.596 145.895H368.561L363.426 130.429C363.037 129.241 361.929 128.437 360.681 128.437H360.624C359.361 128.451 358.258 129.296 357.914 130.512L349.863 158.637L340.408 101.755C340.197 100.38 339.044 99.3462 337.656 99.2881C336.268 99.2299 335.033 100.164 334.709 101.516L325.124 145.879H314.384C313.321 145.834 312.319 146.377 311.775 147.292C311.23 148.207 311.23 149.347 311.775 150.262C312.319 151.177 313.321 151.719 314.384 151.674H327.404C328.731 151.675 329.888 150.77 330.207 149.48L336.973 116.484L346.231 172.245C346.45 173.584 347.572 174.587 348.925 174.652H349.106C350.399 174.65 351.534 173.794 351.894 172.551L360.877 141.117L363.716 149.682C364.115 150.866 365.22 151.667 366.468 151.674H375.71Z" fill="#09A4D8"/>
<defs>
<linearGradient id="paint0_linear" x1="265.996" y1="436.011" x2="265.996" y2="115.001" gradientUnits="userSpaceOnUse">
<stop stop-color="#808080" stop-opacity="0.25"/>
<stop offset="0.54" stop-color="#808080" stop-opacity="0.12"/>
<stop offset="1" stop-color="#808080" stop-opacity="0.1"/>
</linearGradient>
<linearGradient id="paint1_linear" x1="549.979" y1="432.001" x2="549.979" y2="138.015" gradientUnits="userSpaceOnUse">
<stop stop-color="#808080" stop-opacity="0.25"/>
<stop offset="0.54" stop-color="#808080" stop-opacity="0.12"/>
<stop offset="1" stop-color="#808080" stop-opacity="0.1"/>
</linearGradient>
</defs>
</svg>
