<svg width="24" height="24" viewBox="0 0 24 24" fill="none" xmlns="http://www.w3.org/2000/svg">
<path fill-rule="evenodd" clip-rule="evenodd" d="M6.26087 3C6.26087 4.65685 4.85933 6 3.13043 6C1.40154 6 0 4.65685 0 3C0 1.34315 1.40154 0 3.13043 0C4.85933 0 6.26087 1.34315 6.26087 3ZM0 8.5C0 8.22386 0.223858 8 0.5 8H5.76087C6.03701 8 6.26087 8.22386 6.26087 8.5V23.5C6.26087 23.7761 6.03701 24 5.76087 24H0.5C0.223858 24 0 23.7761 0 23.5V8.5ZM23.398 24H19.786C19.4535 24 19.1839 23.7376 19.1839 23.4139V14.6225C19.1839 13.0041 17.8363 11.692 16.1739 11.692C14.5115 11.692 13.1639 13.0041 13.1639 14.6225V23.4139C13.1639 23.7376 12.8944 24 12.5619 24H8.94983C8.61735 24 8.34783 23.7376 8.34783 23.4139V8.17549C8.34783 7.8518 8.61735 7.5894 8.94983 7.5894H12.5619C12.8944 7.5894 13.1639 7.8518 13.1639 8.17549C13.163 8.37654 13.2908 8.55685 13.4842 8.62745C13.6776 8.69804 13.8956 8.644 14.0308 8.49198C15.0299 7.49313 16.4164 6.95234 17.8475 7.0033C21.4355 7.0033 24 9.1484 24 13.5675V23.4139C24 23.7376 23.7305 24 23.398 24Z" fill="#B0B6CA"/>
<mask id="mask0" mask-type="alpha" maskUnits="userSpaceOnUse" x="0" y="0" width="24" height="24">
<path fill-rule="evenodd" clip-rule="evenodd" d="M6.26087 3C6.26087 4.65685 4.85933 6 3.13043 6C1.40154 6 0 4.65685 0 3C0 1.34315 1.40154 0 3.13043 0C4.85933 0 6.26087 1.34315 6.26087 3ZM0 8.5C0 8.22386 0.223858 8 0.5 8H5.76087C6.03701 8 6.26087 8.22386 6.26087 8.5V23.5C6.26087 23.7761 6.03701 24 5.76087 24H0.5C0.223858 24 0 23.7761 0 23.5V8.5ZM23.398 24H19.786C19.4535 24 19.1839 23.7376 19.1839 23.4139V14.6225C19.1839 13.0041 17.8363 11.692 16.1739 11.692C14.5115 11.692 13.1639 13.0041 13.1639 14.6225V23.4139C13.1639 23.7376 12.8944 24 12.5619 24H8.94983C8.61735 24 8.34783 23.7376 8.34783 23.4139V8.17549C8.34783 7.8518 8.61735 7.5894 8.94983 7.5894H12.5619C12.8944 7.5894 13.1639 7.8518 13.1639 8.17549C13.163 8.37654 13.2908 8.55685 13.4842 8.62745C13.6776 8.69804 13.8956 8.644 14.0308 8.49198C15.0299 7.49313 16.4164 6.95234 17.8475 7.0033C21.4355 7.0033 24 9.1484 24 13.5675V23.4139C24 23.7376 23.7305 24 23.398 24Z" fill="white"/>
</mask>
<g mask="url(#mask0)">
</g>
</svg>
