<svg width="16" height="16" viewBox="0 0 16 16" fill="none" xmlns="http://www.w3.org/2000/svg">
<g opacity="0.2">
<path fill-rule="evenodd" clip-rule="evenodd" d="M2.01758 5.79456C2.01758 2.59944 4.61702 0 7.81217 0C11.0073 0 13.6067 2.59944 13.6068 5.79456C13.6068 9.75981 8.42117 15.581 8.20039 15.8269C7.99339 16.0575 7.63133 16.0579 7.42395 15.8269C7.20317 15.581 2.01758 9.75981 2.01758 5.79456ZM4.89679 5.79456C4.89679 7.40212 6.2046 8.70997 7.81217 8.70997C9.4197 8.70997 10.7275 7.40215 10.7275 5.79459C10.7275 4.18703 9.4197 2.87919 7.81217 2.87919C6.20463 2.87919 4.89679 4.187 4.89679 5.79456Z" fill="#0F1C49"/>
</g>
</svg>
