<svg width="100" height="85" viewBox="0 0 100 85" fill="none" xmlns="http://www.w3.org/2000/svg">
<path d="M32.0796 37.8871C29.611 37.1815 27.1423 36.8234 24.741 36.8234C21.0327 36.8234 17.9385 37.6648 15.5392 38.6951C17.8523 30.2878 23.4088 15.7812 34.4779 14.1475C35.503 13.9962 36.343 13.2602 36.6227 12.2696L39.0419 3.67859C39.2459 2.95206 39.125 2.17438 38.7076 1.54388C38.2902 0.913384 37.6194 0.492706 36.8677 0.390407C36.0507 0.279757 35.218 0.223389 34.3927 0.223389C21.1063 0.223389 7.94819 13.992 2.39582 33.7064C-0.863485 45.2725 -1.8192 62.6612 6.2092 73.6062C10.7018 79.7305 17.2561 83.001 25.6904 83.3277C25.7251 83.3287 25.7587 83.3298 25.7934 83.3298C36.2 83.3298 45.4281 76.3714 48.2353 66.4097C49.9122 60.4545 49.1542 54.209 46.0988 48.8195C43.0761 43.4906 38.0978 39.6064 32.0796 37.8871Z" fill="#EBF2F4"/>
<path d="M96.9915 48.82C93.9688 43.4901 88.9904 39.6059 82.9722 37.8867C80.5035 37.181 78.0348 36.823 75.6344 36.823C71.9261 36.823 68.8308 37.6643 66.4315 38.6946C68.7446 30.2874 74.3013 15.781 85.3715 14.1473C86.3966 13.996 87.2356 13.2601 87.5163 12.2695L89.9356 3.67854C90.1396 2.95202 90.0186 2.17435 89.6012 1.54386C89.1849 0.913376 88.5141 0.492703 87.7613 0.390405C86.9454 0.279757 86.1127 0.223389 85.2863 0.223389C71.9997 0.223389 58.8415 13.9918 53.288 33.706C50.0297 45.2719 49.074 62.6604 57.1035 73.6073C61.5951 79.7306 68.1506 83.002 76.5838 83.3277C76.6185 83.3287 76.6522 83.3298 76.6879 83.3298C87.0936 83.3298 96.3228 76.3714 99.1301 66.41C100.805 60.4548 100.046 54.2084 96.9915 48.82Z" fill="#EBF2F4"/>
</svg>
