<?xml version="1.0" standalone="no"?>
<!DOCTYPE svg PUBLIC "-//W3C//DTD SVG 20010904//EN"
 "http://www.w3.org/TR/2001/REC-SVG-20010904/DTD/svg10.dtd">
<svg version="1.0" xmlns="http://www.w3.org/2000/svg"
 width="120.000000pt" height="120.000000pt" viewBox="0 0 120.000000 120.000000"
 preserveAspectRatio="xMidYMid meet">
<metadata>
Created by potrace 1.11, written by Peter Selinger 2001-2013
</metadata>
<g transform="translate(0.000000,120.000000) scale(0.100000,-0.100000)"
fill="#000000" stroke="none">
<path d="M46 1175 c-14 -13 -31 -36 -36 -50 -6 -15 -10 -124 -10 -243 l0 -217
137 2 c76 0 146 2 155 2 12 1 22 18 34 59 48 170 63 202 94 202 32 0 48 -36
95 -220 26 -102 48 -186 49 -187 1 -2 26 71 54 161 29 90 59 169 67 176 7 6
24 10 37 8 21 -3 50 -58 100 -191 2 -5 22 -10 45 -11 54 -4 73 -20 73 -60 -1
-52 -22 -69 -87 -71 -74 -2 -90 6 -113 61 -11 24 -21 44 -24 44 -2 0 -30 -80
-61 -177 -31 -98 -62 -181 -69 -185 -20 -14 -55 -8 -64 9 -5 10 -28 92 -51
183 -24 91 -45 172 -48 180 -3 9 -13 -8 -25 -42 -15 -44 -25 -58 -46 -65 -15
-5 -100 -9 -189 -8 l-163 1 0 -221 c0 -241 7 -276 60 -302 30 -15 1034 -19
1073 -4 13 5 34 25 46 45 22 34 22 37 19 553 -3 480 -4 521 -21 546 -10 16
-29 32 -43 37 -15 6 -238 10 -543 10 l-518 0 -27 -25z"/>
</g>
</svg>
